<svg width="124" height="162" viewBox="0 0 124 162" fill="none" xmlns="http://www.w3.org/2000/svg">
<path d="M24.0606 159.561C23.4748 160.147 22.525 160.147 21.9392 159.561L12.3933 150.015C11.8075 149.429 11.8075 148.479 12.3933 147.893C12.9791 147.308 13.9288 147.308 14.5146 147.893L22.9999 156.379L31.4852 147.893C32.071 147.308 33.0207 147.308 33.6065 147.893C34.1923 148.479 34.1923 149.429 33.6065 150.015L24.0606 159.561ZM28.2166 1.5096C29.045 1.5127 29.714 2.18678 29.7109 3.0152C29.7078 3.84362 29.0338 4.51267 28.2053 4.50958L28.2166 1.5096ZM38.1143 4.58624C37.286 4.57629 36.6225 3.8967 36.6325 3.06833C36.6424 2.23997 37.322 1.5765 38.1504 1.58645L38.1143 4.58624ZM48.1427 1.75589C48.9709 1.77435 49.6273 2.46073 49.6089 3.28895C49.5904 4.11717 48.9041 4.77361 48.0758 4.75515L48.1427 1.75589ZM57.8295 5.03219C57.0016 5.00318 56.354 4.30849 56.383 3.48058C56.412 2.65266 57.1067 2.00502 57.9346 2.03404L57.8295 5.03219ZM68.0681 2.47268C68.8954 2.51601 69.5309 3.22179 69.4876 4.04909C69.4443 4.87638 68.7385 5.5119 67.9112 5.46857L68.0681 2.47268ZM77.7439 6.09167C76.9178 6.02913 76.2988 5.30878 76.3614 4.48271C76.4239 3.65665 77.1443 3.03769 77.9703 3.10023L77.7439 6.09167ZM87.8006 3.99963C88.6241 4.08993 89.2184 4.83071 89.1281 5.6542C89.0378 6.47769 88.297 7.07205 87.4735 6.98175L87.8006 3.99963ZM97.2177 8.29686C96.4004 8.16155 95.8475 7.3893 95.9829 6.572C96.1182 5.7547 96.8904 5.20184 97.7077 5.33715L97.2177 8.29686ZM107.686 7.47555C108.484 7.6981 108.95 8.52541 108.728 9.32338C108.505 10.1214 107.678 10.5878 106.88 10.3653L107.686 7.47555ZM115.516 13.8922C114.817 13.4462 114.613 12.5187 115.059 11.8206C115.505 11.1224 116.433 10.9181 117.131 11.3641L115.516 13.8922ZM122.433 20.9689C122.338 21.7919 121.594 22.3817 120.771 22.2864C119.948 22.191 119.358 21.4466 119.453 20.6237L122.433 20.9689ZM115.469 28.6538C115.972 27.9952 116.913 27.8686 117.572 28.3711C118.23 28.8736 118.357 29.8149 117.854 30.4735L115.469 28.6538ZM111.047 38.0641C110.46 38.6492 109.51 38.6482 108.925 38.0618C108.34 37.4753 108.341 36.5256 108.928 35.9404L111.047 38.0641ZM101.781 42.6822C102.395 42.1261 103.344 42.1731 103.9 42.7872C104.456 43.4013 104.409 44.3499 103.795 44.9059L101.781 42.6822ZM96.311 51.5451C95.6877 52.0907 94.74 52.0278 94.1943 51.4045C93.6486 50.7812 93.7116 49.8335 94.3349 49.2878L96.311 51.5451ZM86.8199 55.8539C87.4431 55.3081 88.3907 55.3708 88.9366 55.9939C89.4824 56.6171 89.4197 57.5648 88.7965 58.1106L86.8199 55.8539ZM81.3755 64.6753C80.7586 65.2282 79.8102 65.1764 79.2573 64.5595C78.7044 63.9426 78.7562 62.9942 79.3731 62.4413L81.3755 64.6753ZM72.0128 69.165C72.6184 68.5997 73.5676 68.6323 74.1329 69.2378C74.6982 69.8434 74.6656 70.7926 74.0601 71.3579L72.0128 69.165ZM66.9147 78.2119C66.3254 78.7942 65.3757 78.7885 64.7934 78.1993C64.2111 77.61 64.2168 76.6603 64.806 76.078L66.9147 78.2119ZM57.8173 83.2304C58.385 82.627 59.3343 82.598 59.9377 83.1657C60.541 83.7334 60.57 84.6827 60.0023 85.286L57.8173 83.2304ZM53.3924 92.6259C52.8525 93.2542 51.9055 93.326 51.2771 92.7861C50.6488 92.2463 50.5771 91.2992 51.1169 90.6709L53.3924 92.6259ZM44.7872 98.4466C45.2918 97.7896 46.2335 97.6661 46.8905 98.1707C47.5475 98.6754 47.671 99.6171 47.1663 100.274L44.7872 98.4466ZM41.4224 108.268C40.9621 108.957 40.0306 109.142 39.3418 108.682C38.653 108.222 38.4678 107.29 38.9281 106.601L41.4224 108.268ZM33.6623 115.17C34.0672 114.448 34.9814 114.19 35.7041 114.595C36.4268 115 36.6844 115.914 36.2794 116.637L33.6623 115.17ZM31.8777 125.391C31.541 126.148 30.6544 126.489 29.8975 126.152C29.1406 125.815 28.8 124.928 29.1368 124.172L31.8777 125.391ZM25.5191 133.592C25.7737 132.804 26.6192 132.371 27.4075 132.626C28.1959 132.88 28.6285 133.726 28.3739 134.514L25.5191 133.592ZM25.9249 143.95C25.7656 144.763 24.9774 145.293 24.1644 145.134C23.3515 144.974 22.8216 144.186 22.9809 143.373L25.9249 143.95ZM21.668 153.401C21.7225 152.574 22.4368 151.949 23.2634 152.003C24.09 152.058 24.716 152.772 24.6615 153.598L21.668 153.401ZM23 1.5C24.7669 1.5 26.5057 1.5032 28.2166 1.5096L28.2053 4.50958C26.4983 4.50319 24.7633 4.5 23 4.5L23 1.5ZM38.1504 1.58645C41.6066 1.62796 44.9363 1.68442 48.1427 1.75589L48.0758 4.75515C44.8804 4.68392 41.5611 4.62763 38.1143 4.58624L38.1504 1.58645ZM57.9346 2.03404C61.4833 2.15841 64.8592 2.30459 68.0681 2.47268L67.9112 5.46857C64.7212 5.30148 61.3626 5.15602 57.8295 5.03219L57.9346 2.03404ZM77.9703 3.10023C81.4859 3.36638 84.7591 3.66609 87.8006 3.99963L87.4735 6.98175C84.4699 6.65236 81.2306 6.35564 77.7439 6.09167L77.9703 3.10023ZM97.7077 5.33715C101.516 5.96762 104.831 6.67925 107.686 7.47555L106.88 10.3653C104.154 9.60485 100.948 8.91445 97.2177 8.29686L97.7077 5.33715ZM117.131 11.3641C119.081 12.6101 120.533 14.0349 121.436 15.6737C122.349 17.3312 122.648 19.1148 122.433 20.9689L119.453 20.6237C119.603 19.3347 119.395 18.1861 118.808 17.1213C118.211 16.0377 117.171 14.95 115.516 13.8922L117.131 11.3641ZM117.854 30.4735C116.025 32.8716 113.713 35.4036 111.047 38.0641L108.928 35.9404C111.543 33.3307 113.752 30.9042 115.469 28.6538L117.854 30.4735ZM103.795 44.9059C101.441 47.0373 98.9312 49.2512 96.311 51.5451L94.3349 49.2878C96.9512 46.9973 99.4462 44.7965 101.781 42.6822L103.795 44.9059ZM88.7965 58.1106C86.3696 60.2364 83.8871 62.4242 81.3755 64.6753L79.3731 62.4413C81.8967 60.1795 84.3886 57.9834 86.8199 55.8539L88.7965 58.1106ZM74.0601 71.3579C71.6725 73.587 69.2832 75.8715 66.9147 78.2119L64.806 76.078C67.1976 73.7147 69.6077 71.4104 72.0128 69.165L74.0601 71.3579ZM60.0023 85.286C57.7503 87.6797 55.5401 90.1262 53.3924 92.6259L51.1169 90.6709C53.2969 88.1335 55.5377 85.6534 57.8173 83.2304L60.0023 85.286ZM47.1663 100.274C45.1601 102.886 43.2385 105.551 41.4224 108.268L38.9281 106.601C40.7839 103.824 42.7444 101.106 44.7872 98.4466L47.1663 100.274ZM36.2794 116.637C34.6744 119.501 33.2 122.419 31.8777 125.391L29.1368 124.172C30.4993 121.109 32.0156 118.109 33.6623 115.17L36.2794 116.637ZM28.3739 134.514C27.3756 137.605 26.5521 140.75 25.9249 143.95L22.9809 143.373C23.6321 140.051 24.4862 136.79 25.5191 133.592L28.3739 134.514ZM24.6615 153.598C24.5546 155.219 24.4999 156.852 24.4999 158.5L21.4999 158.5C21.4999 156.786 21.5568 155.086 21.668 153.401L24.6615 153.598ZM25.1212 160.621C23.9497 161.793 22.0502 161.793 20.8786 160.621L1.78671 141.529C0.615134 140.358 0.615134 138.458 1.78671 137.287C2.95828 136.115 4.85777 136.115 6.02935 137.287L22.9999 154.257L39.9705 137.287C41.142 136.115 43.0415 136.115 44.2131 137.287C45.3847 138.458 45.3847 140.358 44.2131 141.529L25.1212 160.621ZM28.2222 0.00960712C29.879 0.0158051 31.2171 1.36397 31.2109 3.02081C31.2047 4.67765 29.8566 6.01576 28.1997 6.00956L28.2222 0.00960712ZM38.0963 6.08613C36.4396 6.06623 35.1127 4.70706 35.1326 3.05032C35.1525 1.39359 36.5116 0.0666654 38.1684 0.0865602L38.0963 6.08613ZM48.1761 0.256266C49.8326 0.293188 51.1454 1.66593 51.1085 3.32237C51.0716 4.97882 49.6988 6.2917 48.0424 6.25478L48.1761 0.256266ZM57.777 6.53127C56.1212 6.47324 54.8259 5.08387 54.8839 3.42804C54.9419 1.7722 56.3313 0.476923 57.9871 0.534956L57.777 6.53127ZM68.1466 0.97473C69.8012 1.0614 71.0722 2.47296 70.9855 4.12755C70.8989 5.78213 69.4873 7.05318 67.8327 6.96652L68.1466 0.97473ZM77.6306 7.58739C75.9785 7.46231 74.7406 6.0216 74.8657 4.36948C74.9907 2.71735 76.4314 1.47943 78.0836 1.60451L77.6306 7.58739ZM87.9641 2.50856C89.6111 2.68918 90.7998 4.17074 90.6192 5.81772C90.4386 7.4647 88.957 8.65342 87.31 8.47281L87.9641 2.50856ZM96.9727 9.77672C95.3381 9.50609 94.2324 7.9616 94.503 6.327C94.7736 4.69239 96.3181 3.58667 97.9527 3.8573L96.9727 9.77672ZM108.089 6.03069C109.685 6.4758 110.618 8.13041 110.173 9.72635C109.728 11.3223 108.073 12.2552 106.477 11.8101L108.089 6.03069ZM114.708 15.1562C113.312 14.2642 112.903 12.4092 113.795 11.013C114.687 9.61674 116.542 9.20801 117.938 10.1L114.708 15.1562ZM123.924 21.1416C123.733 22.7874 122.244 23.9671 120.598 23.7764C118.952 23.5857 117.773 22.0969 117.963 20.4511L123.924 21.1416ZM114.277 27.744C115.282 26.4267 117.164 26.1736 118.481 27.1786C119.799 28.1836 120.052 30.0661 119.047 31.3834L114.277 27.744ZM112.106 39.1259C110.933 40.2962 109.034 40.2941 107.863 39.1213C106.693 37.9484 106.695 36.0489 107.868 34.8786L112.106 39.1259ZM100.774 41.5703C102.002 40.4582 103.9 40.5522 105.012 41.7804C106.124 43.0085 106.03 44.9057 104.802 46.0178L100.774 41.5703ZM97.299 52.6737C96.0524 53.765 94.1571 53.6392 93.0657 52.3926C91.9743 51.1459 92.1002 49.2506 93.3468 48.1592L97.299 52.6737ZM85.8316 54.7255C87.0779 53.6339 88.9733 53.7593 90.0649 55.0056C91.1566 56.252 91.0312 58.1473 89.7848 59.239L85.8316 54.7255ZM82.3766 65.7923C81.1428 66.8982 79.2461 66.7944 78.1403 65.5606C77.0345 64.3268 77.1382 62.4302 78.372 61.3243L82.3766 65.7923ZM70.9892 68.0686C72.2003 66.9379 74.0987 67.0031 75.2293 68.2142C76.36 69.4253 76.2948 71.3237 75.0837 72.4543L70.9892 68.0686ZM67.969 79.2789C66.7904 80.4434 64.891 80.4321 63.7264 79.2536C62.5619 78.075 62.5732 76.1756 63.7517 75.011L67.969 79.2789ZM56.7248 82.2025C57.8602 80.9958 59.7588 80.9379 60.9655 82.0732C62.1722 83.2085 62.2301 85.1071 61.0948 86.3139L56.7248 82.2025ZM54.5301 93.6034C53.4504 94.8601 51.5563 95.0036 50.2996 93.9239C49.0429 92.8441 48.8994 90.9501 49.9792 89.6933L54.5301 93.6034ZM43.5976 97.5329C44.6068 96.2189 46.4902 95.9719 47.8042 96.9812C49.1182 97.9904 49.3652 99.8738 48.3559 101.188L43.5976 97.5329ZM42.6695 109.102C41.7489 110.479 39.8859 110.85 38.5084 109.929C37.1308 109.008 36.7604 107.145 37.681 105.768L42.6695 109.102ZM32.3537 114.437C33.1636 112.992 34.9919 112.477 36.4373 113.286C37.8827 114.096 38.3979 115.925 37.588 117.37L32.3537 114.437ZM33.2482 126.001C32.5747 127.515 30.8015 128.196 29.2878 127.522C27.774 126.849 27.0928 125.076 27.7663 123.562L33.2482 126.001ZM24.0917 133.131C24.601 131.554 26.2919 130.689 27.8686 131.198C29.4452 131.708 30.3105 133.399 29.8013 134.975L24.0917 133.131ZM27.3969 144.239C27.0783 145.865 25.5019 146.924 23.8759 146.606C22.25 146.287 21.1903 144.711 21.5089 143.085L27.3969 144.239ZM20.1712 153.302C20.2802 151.649 21.7088 150.397 23.3621 150.506C25.0154 150.615 26.2672 152.044 26.1582 153.697L20.1712 153.302ZM23 -1.71287e-06C24.7687 -1.7292e-06 26.5094 0.00319975 28.2222 0.00960712L28.1997 6.00956C26.4946 6.00319 24.7615 6 23 6L23 -1.71287e-06ZM38.1684 0.0865602C41.6294 0.128121 44.9642 0.184672 48.1761 0.256266L48.0424 6.25478C44.8525 6.18367 41.5383 6.12746 38.0963 6.08613L38.1684 0.0865602ZM57.9871 0.534956C61.5436 0.659603 64.9282 0.806151 68.1466 0.97473L67.8327 6.96652C64.6522 6.79992 61.3023 6.65483 57.777 6.53127L57.9871 0.534956ZM78.0836 1.60451C81.6136 1.87176 84.9037 2.17295 87.9641 2.50856L87.31 8.47281C84.3253 8.1455 81.1029 7.85027 77.6306 7.58739L78.0836 1.60451ZM97.9527 3.8573C101.8 4.4942 105.17 5.21644 108.089 6.03069L106.477 11.8101C103.815 11.0677 100.664 10.3879 96.9727 9.77672L97.9527 3.8573ZM117.938 10.1C120.036 11.4402 121.694 13.0336 122.75 14.9499C123.826 16.9037 124.171 19.0049 123.924 21.1416L117.963 20.4511C118.08 19.4447 117.918 18.6136 117.494 17.845C117.05 17.039 116.216 16.1199 114.708 15.1562L117.938 10.1ZM119.047 31.3834C117.161 33.8553 114.798 36.44 112.106 39.1259L107.868 34.8786C110.458 32.2943 112.616 29.9206 114.277 27.744L119.047 31.3834ZM104.802 46.0178C102.438 48.1577 99.9212 50.3781 97.299 52.6737L93.3468 48.1592C95.9612 45.8704 98.4487 43.6761 100.774 41.5703L104.802 46.0178ZM89.7848 59.239C87.3601 61.3628 84.8823 63.5465 82.3766 65.7923L78.372 61.3243C80.9014 59.0572 83.3981 56.857 85.8316 54.7255L89.7848 59.239ZM75.0837 72.4543C72.7048 74.6752 70.3259 76.9499 67.969 79.2789L63.7517 75.011C66.1549 72.6364 68.5753 70.3221 70.9892 68.0686L75.0837 72.4543ZM61.0948 86.3139C58.8567 88.6928 56.6616 91.1226 54.5301 93.6034L49.9792 89.6933C52.1754 87.1372 54.4314 84.6402 56.7248 82.2025L61.0948 86.3139ZM48.3559 101.188C46.368 103.776 44.4658 106.414 42.6695 109.102L37.681 105.768C39.5566 102.961 41.5365 100.216 43.5976 97.5329L48.3559 101.188ZM37.588 117.37C36.0038 120.197 34.5504 123.074 33.2482 126.001L27.7663 123.562C29.1489 120.455 30.6862 117.413 32.3537 114.437L37.588 117.37ZM29.8013 134.975C28.8204 138.012 28.0121 141.1 27.3969 144.239L21.5089 143.085C22.1722 139.701 23.0414 136.383 24.0917 133.131L29.8013 134.975ZM26.1582 153.697C26.0535 155.285 25.9999 156.886 25.9999 158.5L19.9999 158.5C19.9999 156.753 20.0579 155.02 20.1712 153.302L26.1582 153.697Z" fill="#585858"/>
</svg>
