<svg width="221" height="157" viewBox="0 0 221 157" fill="none" xmlns="http://www.w3.org/2000/svg">
<path d="M197.439 155.061C198.025 155.646 198.975 155.646 199.561 155.061L209.107 145.515C209.692 144.929 209.692 143.979 209.107 143.393C208.521 142.808 207.571 142.808 206.985 143.393L198.5 151.879L190.015 143.393C189.429 142.808 188.479 142.808 187.893 143.393C187.308 143.979 187.308 144.929 187.893 145.515L197.439 155.061ZM2.17059 5.12949C2.22687 5.956 2.94251 6.5804 3.76902 6.52412C4.59554 6.46784 5.21994 5.7522 5.16366 4.92569L2.17059 5.12949ZM6.54179 14.3727C6.35439 13.5658 5.54831 13.0635 4.74136 13.2509C3.9344 13.4383 3.43216 14.2444 3.61956 15.0514L6.54179 14.3727ZM6.81242 24.5846C7.15245 25.34 8.04049 25.6768 8.79592 25.3368C9.55135 24.9967 9.8881 24.1087 9.54808 23.3533L6.81242 24.5846ZM14.3448 31.5541C13.8528 30.8876 12.9136 30.7462 12.2471 31.2382C11.5806 31.7302 11.4391 32.6693 11.9311 33.3358L14.3448 31.5541ZM18.7236 40.8128C19.3373 41.3692 20.286 41.3227 20.8423 40.7089C21.3987 40.0951 21.3522 39.1465 20.7384 38.5901L18.7236 40.8128ZM28.3645 44.4061C27.6687 43.9565 26.7402 44.156 26.2906 44.8518C25.8409 45.5476 26.0405 46.4761 26.7363 46.9258L28.3645 44.4061ZM35.4505 51.795C36.1959 52.1565 37.0932 51.8452 37.4546 51.0998C37.8161 50.3544 37.5048 49.4571 36.7594 49.0956L35.4505 51.795ZM45.6677 52.9097C44.8931 52.6159 44.027 53.0057 43.7332 53.7802C43.4394 54.5548 43.8291 55.4209 44.6037 55.7147L45.6677 52.9097ZM54.0047 58.9247C54.7963 59.1689 55.636 58.7251 55.8802 57.9335C56.1244 57.1419 55.6806 56.3022 54.889 56.058L54.0047 58.9247ZM64.2969 58.7211C63.4953 58.5119 62.6759 58.992 62.4666 59.7936C62.2574 60.5952 62.7375 61.4146 63.5391 61.6238L64.2969 58.7211ZM73.1406 63.9721C73.9478 64.1583 74.7531 63.6548 74.9393 62.8475C75.1254 62.0403 74.6219 61.235 73.8147 61.0488L73.1406 63.9721ZM83.3924 63.1652C82.5822 62.9923 81.7853 63.509 81.6124 64.3192C81.4396 65.1294 81.9562 65.9263 82.7664 66.0992L83.3924 63.1652ZM92.3961 68.1161C93.2073 68.2842 94.0012 67.7629 94.1694 66.9517C94.3375 66.1406 93.8162 65.3467 93.005 65.1785L92.3961 68.1161ZM102.637 67.1869C101.826 67.0156 101.03 67.5337 100.859 68.3442C100.688 69.1547 101.206 69.9507 102.016 70.122L102.637 67.1869ZM111.606 72.2096C112.414 72.392 113.217 71.8848 113.4 71.0767C113.582 70.2686 113.075 69.4656 112.267 69.2832L111.606 72.2096ZM121.872 71.5623C121.068 71.3608 120.253 71.8488 120.052 72.6524C119.85 73.4559 120.338 74.2707 121.142 74.4722L121.872 71.5623ZM130.591 77.0089C131.387 77.2384 132.219 76.7793 132.448 75.9833C132.678 75.1873 132.219 74.356 131.423 74.1264L130.591 77.0089ZM140.877 77.0896C140.093 76.822 139.241 77.2405 138.973 78.0245C138.705 78.8085 139.124 79.6611 139.908 79.9287L140.877 77.0896ZM149.022 83.3539C149.788 83.671 150.665 83.3077 150.982 82.5423C151.299 81.777 150.936 80.8995 150.171 80.5824L149.022 83.3539ZM159.205 84.7517C158.468 84.3726 157.564 84.6625 157.184 85.3991C156.805 86.1357 157.095 87.0401 157.832 87.4192L159.205 84.7517ZM166.191 92.2654C166.884 92.7189 167.814 92.5246 168.267 91.8313C168.721 91.1381 168.527 90.2084 167.833 89.7549L166.191 92.2654ZM175.856 95.7402C175.226 95.2026 174.279 95.2777 173.742 95.9079C173.204 96.5382 173.279 97.485 173.909 98.0226L175.856 95.7402ZM180.744 104.759C181.289 105.383 182.236 105.447 182.86 104.903C183.484 104.358 183.548 103.41 183.003 102.786L180.744 104.759ZM188.996 110.84C188.555 110.139 187.629 109.927 186.928 110.368C186.226 110.808 186.015 111.734 186.455 112.436L188.996 110.84ZM190.898 120.915C191.226 121.676 192.108 122.028 192.869 121.7C193.63 121.373 193.982 120.491 193.654 119.73L190.898 120.915ZM196.943 129.196C196.726 128.396 195.901 127.925 195.102 128.142C194.303 128.36 193.831 129.184 194.048 129.983L196.943 129.196ZM195.994 139.411C196.113 140.231 196.875 140.798 197.695 140.679C198.514 140.559 199.082 139.798 198.962 138.978L195.994 139.411ZM199.888 148.886C199.851 148.059 199.15 147.418 198.323 147.454C197.495 147.491 196.854 148.192 196.891 149.02L199.888 148.886ZM2 8.50744e-06C2 1.75805 2.05741 3.46732 2.17059 5.12949L5.16366 4.92569C5.05528 3.33398 5 1.69275 5 1.20175e-05L2 8.50744e-06ZM3.61956 15.0514C4.41118 18.4601 5.48296 21.631 6.81242 24.5846L9.54808 23.3533C8.30139 20.5835 7.29088 17.5983 6.54179 14.3727L3.61956 15.0514ZM11.9311 33.3358C13.9403 36.0576 16.2162 38.5399 18.7236 40.8128L20.7384 38.5901C18.3678 36.4411 16.2278 34.1051 14.3448 31.5541L11.9311 33.3358ZM26.7363 46.9258C29.4775 48.6972 32.3916 50.3117 35.4505 51.795L36.7594 49.0956C33.7958 47.6585 30.9901 46.1028 28.3645 44.4061L26.7363 46.9258ZM44.6037 55.7147C47.6412 56.8669 50.7818 57.9306 54.0047 58.9247L54.889 56.058C51.7169 55.0795 48.6371 54.0361 45.6677 52.9097L44.6037 55.7147ZM63.5391 61.6238C66.6878 62.4458 69.894 63.2235 73.1406 63.9721L73.8147 61.0488C70.5895 60.3052 67.4119 59.5343 64.2969 58.7211L63.5391 61.6238ZM82.7664 66.0992C85.9565 66.7798 89.1723 67.4478 92.3961 68.1161L93.005 65.1785C89.7809 64.5102 86.573 63.8438 83.3924 63.1652L82.7664 66.0992ZM102.016 70.122C105.222 70.7998 108.423 71.4912 111.606 72.2096L112.267 69.2832C109.066 68.5608 105.851 67.8664 102.637 67.1869L102.016 70.122ZM121.142 74.4722C124.33 75.2719 127.485 76.1128 130.591 77.0089L131.423 74.1264C128.277 73.2191 125.088 72.3691 121.872 71.5623L121.142 74.4722ZM139.908 79.9287C143.02 80.9914 146.064 82.128 149.022 83.3539L150.171 80.5824C147.146 79.3292 144.043 78.1703 140.877 77.0896L139.908 79.9287ZM157.832 87.4192C160.737 88.9144 163.529 90.524 166.191 92.2654L167.833 89.7549C165.076 87.9511 162.193 86.2897 159.205 84.7517L157.832 87.4192ZM173.909 98.0226C176.35 100.104 178.634 102.344 180.744 104.759L183.003 102.786C180.792 100.253 178.402 97.9116 175.856 95.7402L173.909 98.0226ZM186.455 112.436C188.114 115.077 189.6 117.897 190.898 120.915L193.654 119.73C192.296 116.571 190.737 113.613 188.996 110.84L186.455 112.436ZM194.048 129.983C194.857 132.957 195.51 136.095 195.994 139.411L198.962 138.978C198.462 135.548 197.785 132.291 196.943 129.196L194.048 129.983ZM196.891 149.02C196.963 150.642 197 152.302 197 154L200 154C200 152.259 199.962 150.555 199.888 148.886L196.891 149.02ZM196.379 156.121C197.55 157.293 199.45 157.293 200.621 156.121L219.713 137.029C220.885 135.858 220.885 133.958 219.713 132.787C218.542 131.615 216.642 131.615 215.471 132.787L198.5 149.757L181.529 132.787C180.358 131.615 178.458 131.615 177.287 132.787C176.115 133.958 176.115 135.858 177.287 137.029L196.379 156.121ZM0.674054 5.23138C0.78661 6.88441 2.2179 8.13321 3.87092 8.02066C5.52395 7.9081 6.77275 6.47681 6.66019 4.82379L0.674054 5.23138ZM8.00291 14.0334C7.6281 12.4195 6.01594 11.415 4.40203 11.7898C2.78813 12.1646 1.78364 13.7768 2.15844 15.3907L8.00291 14.0334ZM5.4446 25.2003C6.12465 26.7111 7.90074 27.3846 9.41159 26.7046C10.9225 26.0245 11.596 24.2485 10.9159 22.7376L5.4446 25.2003ZM15.5516 30.6633C14.5676 29.3303 12.6893 29.0474 11.3563 30.0314C10.0232 31.0153 9.74031 32.8937 10.7243 34.2267L15.5516 30.6633ZM17.7161 41.9242C18.9437 43.0369 20.8409 42.9439 21.9537 41.7164C23.0665 40.4888 22.9734 38.5916 21.7459 37.4788L17.7161 41.9242ZM29.1787 43.1463C27.7871 42.247 25.93 42.6461 25.0307 44.0377C24.1315 45.4292 24.5306 47.2863 25.9221 48.1856L29.1787 43.1463ZM34.796 53.1447C36.2868 53.8676 38.0814 53.2451 38.8043 51.7543C39.5272 50.2635 38.9047 48.4689 37.4139 47.7459L34.796 53.1447ZM46.1997 51.5072C44.6505 50.9196 42.9183 51.6991 42.3307 53.2483C41.7431 54.7974 42.5226 56.5296 44.0717 57.1172L46.1997 51.5072ZM53.5625 60.3581C55.1458 60.8465 56.8252 59.9589 57.3135 58.3757C57.8019 56.7924 56.9144 55.113 55.3311 54.6247L53.5625 60.3581ZM64.6757 57.2698C63.0726 56.8513 61.4337 57.8116 61.0153 59.4147C60.5968 61.0179 61.5571 62.6567 63.1602 63.0752L64.6757 57.2698ZM72.8036 65.4338C74.4181 65.8061 76.0287 64.799 76.4009 63.1845C76.7732 61.5701 75.7662 59.9595 74.1517 59.5872L72.8036 65.4338ZM83.7054 61.6982C82.085 61.3525 80.4912 62.3858 80.1454 64.0062C79.7997 65.6266 80.833 67.2204 82.4534 67.5661L83.7054 61.6982ZM92.0917 69.5848C93.714 69.9211 95.3018 68.8786 95.6381 67.2562C95.9744 65.6338 94.9319 64.046 93.3095 63.7097L92.0917 69.5848ZM102.947 65.7194C101.326 65.3766 99.7341 66.4129 99.3914 68.0339C99.0487 69.655 100.085 71.2469 101.706 71.5896L102.947 65.7194ZM111.276 73.6728C112.892 74.0376 114.498 73.0231 114.863 71.4069C115.227 69.7907 114.213 68.1848 112.597 67.82L111.276 73.6728ZM122.237 70.1074C120.629 69.7043 119 70.6804 118.597 72.2875C118.194 73.8945 119.17 75.5241 120.777 75.9271L122.237 70.1074ZM130.176 78.4501C131.768 78.9093 133.43 77.991 133.89 76.399C134.349 74.8071 133.43 73.1443 131.838 72.6851L130.176 78.4501ZM141.362 75.6701C139.794 75.1348 138.089 75.9719 137.553 77.5399C137.018 79.1079 137.855 80.8129 139.423 81.3483L141.362 75.6701ZM148.448 84.7396C149.979 85.3739 151.734 84.6472 152.368 83.1165C153.002 81.5859 152.275 79.8309 150.745 79.1967L148.448 84.7396ZM159.891 83.418C158.418 82.6598 156.609 83.2395 155.851 84.7127C155.092 86.1859 155.672 87.9948 157.145 88.7529L159.891 83.418ZM165.37 93.5206C166.756 94.4277 168.616 94.039 169.523 92.6525C170.43 91.266 170.041 89.4067 168.655 88.4996L165.37 93.5206ZM176.83 94.599C175.569 93.5237 173.676 93.6739 172.6 94.9345C171.525 96.195 171.675 98.0886 172.936 99.1638L176.83 94.599ZM179.614 105.746C180.704 106.994 182.599 107.122 183.847 106.032C185.095 104.943 185.223 103.047 184.133 101.799L179.614 105.746ZM190.266 110.042C189.385 108.639 187.533 108.216 186.13 109.097C184.727 109.978 184.304 111.83 185.185 113.233L190.266 110.042ZM189.52 121.508C190.175 123.03 191.939 123.733 193.461 123.078C194.984 122.424 195.687 120.659 195.032 119.137L189.52 121.508ZM198.39 128.802C197.956 127.203 196.307 126.26 194.708 126.695C193.109 127.13 192.166 128.778 192.601 130.377L198.39 128.802ZM194.509 139.628C194.749 141.267 196.272 142.402 197.911 142.163C199.551 141.924 200.686 140.401 200.446 138.761L194.509 139.628ZM201.386 148.819C201.313 147.164 199.911 145.882 198.256 145.956C196.601 146.03 195.319 147.431 195.392 149.087L201.386 148.819ZM0.500001 6.7524e-06C0.499999 1.7907 0.558478 3.53398 0.674054 5.23138L6.66019 4.82379C6.55421 3.26732 6.5 1.6601 6.5 1.37726e-05L0.500001 6.7524e-06ZM2.15844 15.3907C2.97133 18.891 4.07375 22.1547 5.4446 25.2003L10.9159 22.7376C9.71061 20.0598 8.73073 17.1674 8.00291 14.0334L2.15844 15.3907ZM10.7243 34.2267C12.7965 37.0339 15.1404 39.5893 17.7161 41.9242L21.7459 37.4788C19.4435 35.3917 17.3716 33.1288 15.5516 30.6633L10.7243 34.2267ZM25.9221 48.1856C28.7211 49.9944 31.6895 51.6383 34.796 53.1447L37.4139 47.7459C34.4979 46.3319 31.7465 44.8056 29.1787 43.1463L25.9221 48.1856ZM44.0717 57.1172C47.1433 58.2823 50.3143 59.3561 53.5625 60.3581L55.3311 54.6247C52.1844 53.654 49.1351 52.6207 46.1997 51.5072L44.0717 57.1172ZM63.1602 63.0752C66.3257 63.9015 69.5462 64.6827 72.8036 65.4338L74.1517 59.5872C70.9372 58.846 67.774 58.0785 64.6757 57.2698L63.1602 63.0752ZM82.4534 67.5661C85.6483 68.2478 88.8679 68.9166 92.0917 69.5848L93.3095 63.7097C90.0853 63.0414 86.8812 62.3758 83.7054 61.6982L82.4534 67.5661ZM101.706 71.5896C104.908 72.2665 108.101 72.9564 111.276 73.6728L112.597 67.82C109.387 67.0957 106.165 66.3997 102.947 65.7194L101.706 71.5896ZM120.777 75.9271C123.951 76.7233 127.089 77.5597 130.176 78.4501L131.838 72.6851C128.673 71.7722 125.467 70.9177 122.237 70.1074L120.777 75.9271ZM139.423 81.3483C142.509 82.4019 145.522 83.5274 148.448 84.7396L150.745 79.1967C147.687 77.9298 144.554 76.7598 141.362 75.6701L139.423 81.3483ZM157.145 88.7529C160.009 90.2267 162.756 91.8104 165.37 93.5206L168.655 88.4996C165.85 86.6647 162.921 84.9774 159.891 83.418L157.145 88.7529ZM172.936 99.1638C175.324 101.201 177.555 103.389 179.614 105.746L184.133 101.799C181.871 99.2084 179.428 96.8153 176.83 94.599L172.936 99.1638ZM185.185 113.233C186.802 115.809 188.253 118.561 189.52 121.508L195.032 119.137C193.643 115.907 192.048 112.881 190.266 110.042L185.185 113.233ZM192.601 130.377C193.393 133.29 194.034 136.369 194.509 139.628L200.446 138.761C199.938 135.275 199.249 131.958 198.39 128.802L192.601 130.377ZM195.392 149.087C195.464 150.686 195.5 152.324 195.5 154L201.5 154C201.5 152.237 201.462 150.511 201.386 148.819L195.392 149.087Z" fill="#585858"/>
</svg>
