<svg width="537" height="151" viewBox="0 0 537 151" fill="none" xmlns="http://www.w3.org/2000/svg">
<path d="M21.9393 149.061C22.5251 149.647 23.4749 149.647 24.0607 149.061L33.6066 139.515C34.1924 138.929 34.1924 137.979 33.6066 137.394C33.0208 136.808 32.0711 136.808 31.4853 137.394L23 145.879L14.5147 137.394C13.9289 136.808 12.9792 136.808 12.3934 137.394C11.8076 137.979 11.8076 138.929 12.3934 139.515L21.9393 149.061ZM532.393 5.69489C532.358 6.52258 533.001 7.22183 533.828 7.2567C534.656 7.29158 535.355 6.64887 535.39 5.82118L532.393 5.69489ZM534.521 15.7602C534.633 14.9394 534.059 14.183 533.238 14.0707C532.417 13.9584 531.661 14.5328 531.548 15.3536L534.521 15.7602ZM529.669 24.9471C529.46 25.7486 529.94 26.5681 530.741 26.7775C531.543 26.9869 532.362 26.5069 532.572 25.7053L529.669 24.9471ZM529.41 35.0803C529.732 34.3172 529.375 33.4372 528.612 33.1148C527.849 32.7925 526.969 33.1498 526.647 33.913L529.41 35.0803ZM522.102 42.5178C521.65 43.2124 521.847 44.1415 522.542 44.593C523.236 45.0445 524.166 44.8474 524.617 44.1529L522.102 42.5178ZM518.324 52.0816C518.898 51.4848 518.88 50.5352 518.284 49.9606C517.687 49.386 516.737 49.404 516.163 50.0008L518.324 52.0816ZM508.909 56.2371C508.234 56.7174 508.076 57.6539 508.556 58.3289C509.037 59.0039 509.973 59.1616 510.648 58.6813L508.909 56.2371ZM501.878 63.8635C502.623 63.5005 502.932 62.6026 502.569 61.8579C502.206 61.1133 501.308 60.8038 500.564 61.1668L501.878 63.8635ZM491.667 64.7661C490.881 65.0269 490.455 65.8758 490.716 66.6621C490.977 67.4484 491.826 67.8743 492.612 67.6135L491.667 64.7661ZM482.9 70.2475C483.71 70.0719 484.224 69.2733 484.048 68.4637C483.872 67.6541 483.074 67.1401 482.264 67.3157L482.9 70.2475ZM472.537 68.9811C471.715 69.0876 471.136 69.84 471.242 70.6616C471.349 71.4831 472.101 72.0627 472.923 71.9561L472.537 68.9811ZM463.092 72.8938C463.919 72.8412 464.546 72.1282 464.494 71.3015C464.441 70.4747 463.728 69.8472 462.901 69.8999L463.092 72.8938ZM452.941 70.2571C452.113 70.2654 451.448 70.9437 451.456 71.772C451.465 72.6004 452.143 73.2652 452.971 73.2569L452.941 70.2571ZM443.131 73.1415C443.959 73.1681 444.652 72.5184 444.678 71.6904C444.705 70.8624 444.055 70.1696 443.227 70.143L443.131 73.1415ZM433.284 69.6431C432.457 69.5874 431.742 70.2123 431.686 71.0389C431.631 71.8655 432.256 72.5806 433.082 72.6363L433.284 69.6431ZM423.254 71.8298C424.079 71.9089 424.812 71.3046 424.891 70.4799C424.97 69.6553 424.365 68.9226 423.541 68.8436L423.254 71.8298ZM413.626 67.7689C412.804 67.6701 412.057 68.2567 411.958 69.0792C411.859 69.9017 412.446 70.6486 413.268 70.7475L413.626 67.7689ZM403.506 69.4749C404.327 69.5898 405.085 69.0178 405.2 68.1974C405.315 67.3769 404.743 66.6187 403.922 66.5039L403.506 69.4749ZM394.023 65.0316C393.204 64.9031 392.437 65.4625 392.308 66.2809C392.18 67.0993 392.739 67.8669 393.558 67.9953L394.023 65.0316ZM383.87 66.4059C384.686 66.5454 385.461 65.9964 385.601 65.1798C385.74 64.3632 385.191 63.5882 384.375 63.4487L383.87 66.4059ZM374.557 61.7133C373.742 61.5647 372.961 62.1048 372.812 62.9198C372.664 63.7348 373.204 64.516 374.019 64.6646L374.557 61.7133ZM364.318 62.8479C365.131 63.004 365.917 62.471 366.073 61.6574C366.229 60.8438 365.696 60.0577 364.883 59.9017L364.318 62.8479ZM355.154 57.9972C354.341 57.8352 353.551 58.3625 353.389 59.1749C353.227 59.9873 353.755 60.7773 354.567 60.9393L355.154 57.9972ZM344.829 58.9676C345.641 59.1342 346.434 58.6114 346.6 57.7999C346.767 56.9884 346.244 56.1954 345.433 56.0289L344.829 58.9676ZM335.761 54.0212C334.95 53.8512 334.155 54.3707 333.985 55.1815C333.815 55.9923 334.334 56.7874 335.145 56.9573L335.761 54.0212ZM325.394 54.898C326.204 55.0702 327.001 54.5529 327.173 53.7426C327.345 52.9322 326.828 52.1357 326.017 51.9635L325.394 54.898ZM316.366 49.9043C315.556 49.7309 314.759 50.2471 314.586 51.0572C314.412 51.8672 314.928 52.6645 315.738 52.8378L316.366 49.9043ZM306.036 50.7594C306.846 50.9329 307.643 50.4169 307.817 49.6069C307.991 48.7968 307.475 47.9995 306.664 47.8259L306.036 50.7594ZM296.967 45.7529C296.157 45.5802 295.36 46.0971 295.188 46.9073C295.015 47.7175 295.532 48.5143 296.342 48.687L296.967 45.7529ZM286.655 46.6328C287.466 46.8036 288.261 46.285 288.432 45.4744C288.603 44.6638 288.084 43.8681 287.274 43.6973L286.655 46.6328ZM277.565 41.6673C276.754 41.4992 275.96 42.0206 275.792 42.8318C275.624 43.643 276.146 44.4368 276.957 44.6049L277.565 41.6673ZM267.245 42.6155C268.057 42.7797 268.848 42.2546 269.013 41.4426C269.177 40.6307 268.652 39.8393 267.84 39.675L267.245 42.6155ZM258.126 37.7391C257.313 37.5796 256.525 38.1094 256.366 38.9224C256.206 39.7353 256.736 40.5236 257.549 40.683L258.126 37.7391ZM247.81 38.8089C248.624 38.9624 249.408 38.4268 249.561 37.6127C249.715 36.7986 249.179 36.0143 248.365 35.8608L247.81 38.8089ZM238.606 34.0638C237.79 33.9175 237.011 34.4599 236.864 35.2752C236.718 36.0906 237.26 36.8703 238.076 37.0167L238.606 34.0638ZM228.352 35.3214C229.169 35.4594 229.943 34.909 230.081 34.0922C230.219 33.2753 229.669 32.5013 228.852 32.3633L228.352 35.3214ZM219.01 30.7597C218.192 30.6315 217.424 31.191 217.296 32.0095C217.168 32.8279 217.727 33.5953 218.546 33.7235L219.01 30.7597ZM208.824 32.2672C209.645 32.3842 210.404 31.8142 210.521 30.9941C210.638 30.174 210.068 29.4143 209.248 29.2973L208.824 32.2672ZM199.34 27.9624C198.518 27.8584 197.768 28.4404 197.664 29.2623C197.56 30.0842 198.142 30.8347 198.964 30.9387L199.34 27.9624ZM189.177 29.7888C190.001 29.8779 190.741 29.2824 190.83 28.4588C190.919 27.6351 190.323 26.8953 189.5 26.8062L189.177 29.7888ZM179.594 25.8366C178.769 25.7646 178.041 26.3753 177.969 27.2006C177.897 28.0259 178.508 28.7533 179.333 28.8252L179.594 25.8366ZM169.472 28.081C170.299 28.1333 171.012 27.5054 171.064 26.6787C171.116 25.8519 170.488 25.1393 169.662 25.087L169.472 28.081ZM159.77 24.5927C158.942 24.5628 158.246 25.2097 158.217 26.0376C158.187 26.8655 158.834 27.5609 159.662 27.5907L159.77 24.5927ZM149.74 27.3853C150.569 27.3891 151.244 26.7207 151.247 25.8922C151.251 25.0638 150.583 24.3892 149.754 24.3854L149.74 27.3853ZM139.882 24.5122C139.054 24.538 138.404 25.2302 138.429 26.0582C138.455 26.8862 139.147 27.5366 139.975 27.5108L139.882 24.5122ZM130.05 28.0237C130.876 27.9631 131.497 27.2442 131.436 26.418C131.376 25.5918 130.657 24.9711 129.83 25.0317L130.05 28.0237ZM119.998 25.9833C119.176 26.0832 118.59 26.8309 118.69 27.6533C118.79 28.4756 119.537 29.0613 120.36 28.9613L119.998 25.9833ZM110.553 30.4286C111.368 30.2823 111.911 29.5027 111.765 28.6873C111.618 27.8719 110.839 27.3294 110.023 27.4757L110.553 30.4286ZM100.313 29.5355C99.5084 29.7341 99.0174 30.5471 99.216 31.3514C99.4146 32.1557 100.228 32.6466 101.032 32.448L100.313 29.5355ZM91.5686 35.1594C92.3556 34.9005 92.7836 34.0527 92.5248 33.2658C92.2659 32.4788 91.4181 32.0508 90.6311 32.3097L91.5686 35.1594ZM81.2749 35.8312C80.5132 36.1568 80.1597 37.0384 80.4854 37.8001C80.811 38.5618 81.6925 38.9153 82.4543 38.5897L81.2749 35.8312ZM73.682 42.8481C74.4083 42.4497 74.6741 41.5379 74.2757 40.8116C73.8773 40.0852 72.9655 39.8194 72.2392 40.2178L73.682 42.8481ZM63.7023 45.5084C63.023 45.9826 62.8566 46.9176 63.3308 47.597C63.8049 48.2763 64.74 48.4426 65.4193 47.9685L63.7023 45.5084ZM57.7698 53.9849C58.3902 53.4359 58.4481 52.4879 57.899 51.8675C57.35 51.2471 56.402 51.1893 55.7817 51.7383L57.7698 53.9849ZM48.6852 58.8002C48.1332 59.4179 48.1864 60.3662 48.8041 60.9182C49.4218 61.4702 50.3701 61.417 50.9221 60.7993L48.6852 58.8002ZM44.8606 68.4338C45.3376 67.7565 45.1753 66.8208 44.498 66.3438C43.8207 65.8667 42.8849 66.0291 42.4079 66.7064L44.8606 68.4338ZM37.1104 75.1757C36.7091 75.9004 36.9712 76.8132 37.696 77.2146C38.4207 77.6159 39.3335 77.3537 39.7349 76.629L37.1104 75.1757ZM35.4438 85.3931C35.7715 84.6323 35.4204 83.7498 34.6595 83.4221C33.8987 83.0944 33.0162 83.4455 32.6885 84.2064L35.4438 85.3931ZM29.1557 93.5344C28.8958 94.3209 29.3227 95.1693 30.1093 95.4293C30.8959 95.6892 31.7442 95.2623 32.0042 94.4757L29.1557 93.5344ZM29.2904 103.931C29.4886 103.126 28.9972 102.314 28.1929 102.115C27.3885 101.917 26.5758 102.409 26.3775 103.213L29.2904 103.931ZM24.3441 112.859C24.1996 113.675 24.7436 114.453 25.5593 114.598C26.3751 114.742 27.1535 114.198 27.2981 113.382L24.3441 112.859ZM25.8415 123.382C25.9368 122.559 25.347 121.815 24.5241 121.719C23.7012 121.624 22.9568 122.214 22.8614 123.037L25.8415 123.382ZM21.9938 132.615C21.9388 133.442 22.5644 134.156 23.391 134.211C24.2176 134.266 24.9322 133.641 24.9872 132.814L21.9938 132.615ZM24.5546 142.798C24.5722 141.97 23.915 141.284 23.0868 141.266C22.2585 141.249 21.5729 141.906 21.5553 142.734L24.5546 142.798ZM532.5 0.500802C532.5 2.27343 532.464 4.00453 532.393 5.69489L535.39 5.82118C535.463 4.08721 535.5 2.31398 535.5 0.500802L532.5 0.500802ZM531.548 15.3536C531.085 18.7411 530.456 21.9359 529.669 24.9471L532.572 25.7053C533.391 22.5706 534.042 19.2578 534.521 15.7602L531.548 15.3536ZM526.647 33.913C525.336 37.016 523.817 39.8793 522.102 42.5178L524.617 44.1529C526.432 41.3605 528.033 38.34 529.41 35.0803L526.647 33.913ZM516.163 50.0008C513.95 52.2989 511.528 54.3729 508.909 56.2371L510.648 58.6813C513.414 56.7134 515.977 54.5187 518.324 52.0816L516.163 50.0008ZM500.564 61.1668C497.761 62.5328 494.793 63.7291 491.667 64.7661L492.612 67.6135C495.853 66.5382 498.946 65.2928 501.878 63.8635L500.564 61.1668ZM482.264 67.3157C479.142 67.9928 475.897 68.5451 472.537 68.9811L472.923 71.9561C476.359 71.5103 479.688 70.9442 482.9 70.2475L482.264 67.3157ZM462.901 69.8999C459.668 70.106 456.346 70.2229 452.941 70.2571L452.971 73.2569C456.425 73.2222 459.8 73.1036 463.092 72.8938L462.901 69.8999ZM443.227 70.143C439.975 70.0387 436.659 69.8704 433.284 69.6431L433.082 72.6363C436.49 72.8658 439.841 73.036 443.131 73.1415L443.227 70.143ZM423.541 68.8436C420.283 68.5311 416.977 68.1715 413.626 67.7689L413.268 70.7475C416.641 71.1527 419.971 71.5149 423.254 71.8298L423.541 68.8436ZM403.922 66.5039C400.658 66.047 397.358 65.555 394.023 65.0316L393.558 67.9953C396.908 68.5211 400.225 69.0155 403.506 69.4749L403.922 66.5039ZM384.375 63.4487C381.129 62.8946 377.856 62.3151 374.557 61.7133L374.019 64.6646C377.328 65.2682 380.612 65.8497 383.87 66.4059L384.375 63.4487ZM364.883 59.9017C361.66 59.2835 358.416 58.6477 355.154 57.9972L354.567 60.9393C357.836 61.5911 361.087 62.2283 364.318 62.8479L364.883 59.9017ZM345.433 56.0289C342.223 55.37 338.999 54.6999 335.761 54.0212L335.145 56.9573C338.387 57.6368 341.615 58.3077 344.829 58.9676L345.433 56.0289ZM326.017 51.9635C322.81 51.282 319.592 50.5947 316.366 49.9043L315.738 52.8378C318.965 53.5285 322.185 54.216 325.394 54.898L326.017 51.9635ZM306.664 47.8259C303.438 47.1347 300.205 46.4429 296.967 45.7529L296.342 48.687C299.578 49.3766 302.81 50.0683 306.036 50.7594L306.664 47.8259ZM287.274 43.6973C284.039 43.0154 280.802 42.3379 277.565 41.6673L276.957 44.6049C280.19 45.2747 283.423 45.9515 286.655 46.6328L287.274 43.6973ZM267.84 39.675C264.599 39.0195 261.361 38.3733 258.126 37.7391L257.549 40.683C260.777 41.316 264.01 41.961 267.245 42.6155L267.84 39.675ZM248.365 35.8608C245.105 35.2462 241.851 34.6464 238.606 34.0638L238.076 37.0167C241.312 37.5975 244.557 38.1958 247.81 38.8089L248.365 35.8608ZM228.852 32.3633C225.559 31.8071 222.278 31.2716 219.01 30.7597L218.546 33.7235C221.801 34.2335 225.071 34.767 228.352 35.3214L228.852 32.3633ZM209.248 29.2973C205.928 28.8237 202.625 28.3777 199.34 27.9624L198.964 30.9387C202.232 31.3519 205.519 31.7957 208.824 32.2672L209.248 29.2973ZM189.5 26.8062C186.175 26.4466 182.872 26.1223 179.594 25.8366L179.333 28.8252C182.589 29.1091 185.872 29.4313 189.177 29.7888L189.5 26.8062ZM169.662 25.087C166.334 24.8765 163.036 24.7105 159.77 24.5927L159.662 27.5907C162.899 27.7076 166.17 27.8721 169.472 28.081L169.662 25.087ZM149.754 24.3854C146.424 24.3701 143.133 24.411 139.882 24.5122L139.975 27.5108C143.188 27.4107 146.444 27.3702 149.74 27.3853L149.754 24.3854ZM129.83 25.0317C126.502 25.2757 123.223 25.5912 119.998 25.9833L120.36 28.9613C123.535 28.5754 126.766 28.2644 130.05 28.0237L129.83 25.0317ZM110.023 27.4757C106.72 28.0683 103.482 28.7529 100.313 29.5355L101.032 32.448C104.135 31.6818 107.31 31.0104 110.553 30.4286L110.023 27.4757ZM90.6311 32.3097C87.4269 33.3638 84.3061 34.5353 81.2749 35.8312L82.4543 38.5897C85.402 37.3294 88.4418 36.1881 91.5686 35.1594L90.6311 32.3097ZM72.2392 40.2178C69.2877 41.8368 66.4398 43.5978 63.7023 45.5084L65.4193 47.9685C68.0653 46.1217 70.8214 44.4172 73.682 42.8481L72.2392 40.2178ZM55.7817 51.7383C53.2979 53.9364 50.9302 56.288 48.6852 58.8002L50.9221 60.7993C53.0885 58.3751 55.3729 56.1061 57.7698 53.9849L55.7817 51.7383ZM42.4079 66.7064C40.525 69.3799 38.7575 72.2011 37.1104 75.1757L39.7349 76.629C41.3307 73.747 43.041 71.0175 44.8606 68.4338L42.4079 66.7064ZM32.6885 84.2064C31.4062 87.1837 30.2274 90.2916 29.1557 93.5344L32.0042 94.4757C33.0494 91.3131 34.1973 88.2872 35.4438 85.3931L32.6885 84.2064ZM26.3775 103.213C25.6122 106.318 24.9336 109.533 24.3441 112.859L27.2981 113.382C27.8765 110.119 28.5416 106.969 29.2904 103.931L26.3775 103.213ZM22.8614 123.037C22.5018 126.141 22.212 129.333 21.9938 132.615L24.9872 132.814C25.2023 129.579 25.4877 126.436 25.8415 123.382L22.8614 123.037ZM21.5553 142.734C21.5185 144.466 21.5 146.222 21.5 148L24.5 148C24.5 146.242 24.5183 144.508 24.5546 142.798L21.5553 142.734ZM20.8787 150.122C22.0503 151.293 23.9497 151.293 25.1213 150.122L44.2132 131.03C45.3848 129.858 45.3848 127.959 44.2132 126.787C43.0416 125.615 41.1421 125.615 39.9706 126.787L23 143.758L6.02944 126.787C4.85786 125.615 2.95837 125.615 1.7868 126.787C0.615223 127.959 0.615223 129.858 1.7868 131.03L20.8787 150.122ZM530.894 5.63174C530.824 7.28713 532.11 8.68563 533.765 8.75537C535.421 8.82512 536.819 7.53971 536.889 5.88432L530.894 5.63174ZM536.007 15.9635C536.231 14.3219 535.083 12.8091 533.441 12.5846C531.799 12.36 530.287 13.5087 530.062 15.1503L536.007 15.9635ZM528.218 24.5679C527.799 26.171 528.759 27.81 530.362 28.2288C531.965 28.6476 533.604 27.6875 534.023 26.0845L528.218 24.5679ZM530.792 35.664C531.437 34.1377 530.722 32.3778 529.196 31.7331C527.669 31.0884 525.909 31.803 525.265 33.3293L530.792 35.664ZM520.844 41.7003C519.941 43.0894 520.335 44.9476 521.724 45.8506C523.113 46.7536 524.972 46.3595 525.875 44.9704L520.844 41.7003ZM519.404 53.122C520.553 51.9285 520.517 50.0293 519.324 48.8801C518.13 47.7309 516.231 47.7668 515.082 48.9603L519.404 53.122ZM508.039 55.0149C506.689 55.9756 506.374 57.8487 507.334 59.1986C508.295 60.5485 510.168 60.8641 511.518 59.9034L508.039 55.0149ZM502.535 65.2119C504.025 64.4859 504.644 62.6901 503.918 61.2007C503.192 59.7114 501.396 59.0925 499.907 59.8184L502.535 65.2119ZM491.195 63.3424C489.622 63.8641 488.77 65.5619 489.292 67.1344C489.814 68.707 491.512 69.5589 493.084 69.0372L491.195 63.3424ZM483.218 71.7135C484.837 71.3623 485.865 69.765 485.514 68.1457C485.163 66.5265 483.565 65.4986 481.946 65.8498L483.218 71.7135ZM472.344 67.4935C470.701 67.7067 469.542 69.2115 469.755 70.8545C469.968 72.4976 471.473 73.6568 473.116 73.4437L472.344 67.4935ZM463.187 74.3908C464.841 74.2854 466.096 72.8596 465.991 71.2061C465.885 69.5526 464.459 68.2976 462.806 68.403L463.187 74.3908ZM452.926 68.7571C451.269 68.7738 449.94 70.1303 449.956 71.7871C449.973 73.4439 451.33 74.7735 452.986 74.7568L452.926 68.7571ZM443.083 74.6407C444.739 74.6938 446.124 73.3944 446.177 71.7384C446.231 70.0824 444.931 68.6969 443.275 68.6438L443.083 74.6407ZM433.384 68.1465C431.731 68.0351 430.301 69.285 430.19 70.9381C430.078 72.5912 431.328 74.0216 432.981 74.1329L433.384 68.1465ZM423.111 73.323C424.76 73.4812 426.226 72.2724 426.384 70.6231C426.542 68.9738 425.333 67.5086 423.684 67.3504L423.111 73.323ZM413.805 66.2796C412.16 66.0819 410.666 67.2553 410.469 68.9003C410.271 70.5453 411.444 72.0391 413.089 72.2367L413.805 66.2796ZM403.298 70.9604C404.939 71.1901 406.456 70.0462 406.685 68.4053C406.915 66.7645 405.771 65.2481 404.13 65.0184L403.298 70.9604ZM394.255 63.5497C392.619 63.2928 391.083 64.4115 390.827 66.0483C390.57 67.6851 391.688 69.2203 393.325 69.4772L394.255 63.5497ZM383.617 67.8845C385.25 68.1634 386.801 67.0655 387.079 65.4323C387.358 63.7991 386.26 62.249 384.627 61.9701L383.617 67.8845ZM374.826 60.2377C373.196 59.9404 371.634 61.0207 371.337 62.6507C371.039 64.2806 372.12 65.843 373.75 66.1403L374.826 60.2377ZM364.035 64.3211C365.662 64.6332 367.234 63.5671 367.547 61.9399C367.859 60.3127 366.793 58.7406 365.165 58.4285L364.035 64.3211ZM355.447 56.5262C353.822 56.2022 352.242 57.2567 351.918 58.8816C351.594 60.5065 352.649 62.0863 354.274 62.4103L355.447 56.5262ZM344.528 60.4369C346.151 60.7701 347.737 59.7245 348.07 58.1015C348.403 56.4785 347.357 54.8927 345.734 54.5595L344.528 60.4369ZM336.068 52.5531C334.447 52.2132 332.857 53.2522 332.517 54.8738C332.177 56.4954 333.216 58.0855 334.838 58.4254L336.068 52.5531ZM325.082 56.3652C326.703 56.7096 328.296 55.675 328.64 54.0544C328.984 52.4337 327.95 50.8407 326.329 50.4963L325.082 56.3652ZM316.68 48.4375C315.06 48.0908 313.466 49.1231 313.119 50.7432C312.772 52.3634 313.804 53.9579 315.425 54.3046L316.68 48.4375ZM305.722 52.2261C307.342 52.5732 308.937 51.5412 309.284 49.9211C309.631 48.301 308.599 46.7063 306.979 46.3592L305.722 52.2261ZM297.28 44.2859C295.659 43.9405 294.066 44.9742 293.721 46.5946C293.375 48.2151 294.409 49.8087 296.029 50.1541L297.28 44.2859ZM286.346 48.1005C287.967 48.4423 289.558 47.405 289.9 45.7838C290.242 44.1626 289.204 42.5713 287.583 42.2295L286.346 48.1005ZM277.87 40.1985C276.247 39.8623 274.66 40.9051 274.323 42.5275C273.987 44.1499 275.03 45.7376 276.652 46.0737L277.87 40.1985ZM266.947 44.0857C268.571 44.4142 270.154 43.364 270.483 41.7401C270.811 40.1161 269.761 38.5333 268.137 38.2048L266.947 44.0857ZM258.415 36.2671C256.789 35.9482 255.213 37.0078 254.894 38.6337C254.575 40.2596 255.634 41.8361 257.26 42.1549L258.415 36.2671ZM247.532 40.2829C249.16 40.5899 250.729 39.5188 251.036 37.8906C251.342 36.2624 250.271 34.6937 248.643 34.3868L247.532 40.2829ZM238.871 32.5874C237.24 32.2947 235.681 33.3795 235.388 35.0103C235.095 36.641 236.18 38.2004 237.811 38.4931L238.871 32.5874ZM228.102 36.8004C229.736 37.0764 231.284 35.9758 231.56 34.3421C231.836 32.7084 230.735 31.1602 229.102 30.8842L228.102 36.8004ZM219.242 29.2778C217.605 29.0213 216.07 30.1404 215.814 31.7773C215.558 33.4142 216.677 34.9491 218.314 35.2055L219.242 29.2778ZM208.613 33.7522C210.253 33.9862 211.772 32.8462 212.006 31.2059C212.24 29.5657 211.1 28.0463 209.46 27.8123L208.613 33.7522ZM199.528 26.4742C197.885 26.2663 196.384 27.4304 196.176 29.0741C195.968 30.7179 197.132 32.2189 198.776 32.4268L199.528 26.4742ZM189.016 31.2801C190.663 31.4582 192.143 30.2673 192.321 28.62C192.499 26.9728 191.308 25.493 189.661 25.3149L189.016 31.2801ZM179.724 24.3422C178.074 24.1984 176.619 25.4198 176.475 27.0704C176.331 28.721 177.552 30.1757 179.203 30.3196L179.724 24.3422ZM169.378 29.578C171.031 29.6826 172.456 28.4269 172.561 26.7734C172.666 25.1198 171.41 23.6946 169.756 23.59L169.378 29.578ZM159.824 23.0937C158.168 23.0339 156.777 24.3278 156.718 25.9835C156.658 27.6393 157.952 29.03 159.607 29.0898L159.824 23.0937ZM149.734 28.8853C151.39 28.8929 152.74 27.556 152.747 25.8991C152.755 24.2423 151.418 22.893 149.761 22.8854L149.734 28.8853ZM139.835 23.013C138.179 23.0645 136.879 24.4488 136.93 26.1049C136.982 27.7609 138.366 29.0616 140.022 29.01L139.835 23.013ZM130.159 29.5197C131.812 29.3985 133.053 27.9608 132.932 26.3084C132.811 24.6559 131.373 23.4146 129.721 23.5357L130.159 29.5197ZM119.817 24.4942C118.172 24.6941 117.001 26.1895 117.201 27.8342C117.401 29.479 118.896 30.6503 120.541 30.4504L119.817 24.4942ZM110.818 31.905C112.449 31.6124 113.534 30.0532 113.241 28.4224C112.948 26.7916 111.389 25.7067 109.758 25.9993L110.818 31.905ZM99.953 28.0793C98.3445 28.4765 97.3625 30.1025 97.7597 31.711C98.1569 33.3195 99.7829 34.3015 101.391 33.9043L99.953 28.0793ZM92.0374 36.5843C93.6113 36.0665 94.4674 34.3709 93.9496 32.797C93.4319 31.2232 91.7363 30.367 90.1624 30.8848L92.0374 36.5843ZM80.6853 34.4519C79.1618 35.1033 78.4548 36.8663 79.1061 38.3897C79.7574 39.9132 81.5205 40.6202 83.0439 39.9689L80.6853 34.4519ZM74.4034 44.1632C75.856 43.3664 76.3877 41.5428 75.5908 40.0902C74.794 38.6375 72.9704 38.1059 71.5178 38.9027L74.4034 44.1632ZM62.8438 44.2784C61.4851 45.2267 61.1525 47.0968 62.1008 48.4555C63.0491 49.8141 64.9192 50.1468 66.2778 49.1985L62.8438 44.2784ZM58.7639 55.1082C60.0047 54.0101 60.1204 52.1142 59.0223 50.8734C57.9243 49.6327 56.0283 49.517 54.7876 50.615L58.7639 55.1082ZM47.5667 57.8007C46.4627 59.0361 46.5692 60.9326 47.8046 62.0366C49.04 63.1407 50.9365 63.0342 52.0406 61.7988L47.5667 57.8007ZM46.087 69.2976C47.041 67.9429 46.7163 66.0714 45.3617 65.1174C44.0071 64.1633 42.1355 64.4881 41.1815 65.8427L46.087 69.2976ZM35.7981 74.449C34.9955 75.8985 35.5198 77.7242 36.9693 78.5268C38.4188 79.3294 40.2445 78.8051 41.0471 77.3556L35.7981 74.449ZM36.8215 85.9865C37.4769 84.4648 36.7746 82.6999 35.2529 82.0445C33.7312 81.389 31.9663 82.0913 31.3109 83.613L36.8215 85.9865ZM27.7315 93.0637C27.2116 94.6368 28.0654 96.3336 29.6386 96.8535C31.2117 97.3734 32.9085 96.5196 33.4284 94.9464L27.7315 93.0637ZM30.7468 104.29C31.1433 102.681 30.1605 101.055 28.5518 100.659C26.9431 100.263 25.3176 101.245 24.9211 102.854L30.7468 104.29ZM22.8671 112.597C22.578 114.229 23.6662 115.785 25.2976 116.075C26.929 116.364 28.4859 115.276 28.7751 113.644L22.8671 112.597ZM27.3315 123.555C27.5222 121.909 26.3426 120.42 24.6967 120.229C23.0509 120.039 21.5621 121.218 21.3714 122.864L27.3315 123.555ZM20.4971 132.516C20.3872 134.169 21.6382 135.598 23.2914 135.708C24.9447 135.818 26.3739 134.567 26.4839 132.914L20.4971 132.516ZM26.0543 142.83C26.0894 141.173 24.7751 139.802 23.1186 139.767C21.4621 139.732 20.0908 141.046 20.0556 142.702L26.0543 142.83ZM531 0.500802C531 2.25315 530.964 3.96318 530.894 5.63174L536.889 5.88432C536.963 4.12856 537 2.33426 537 0.500802L531 0.500802ZM530.062 15.1503C529.606 18.4828 528.988 21.6186 528.218 24.5679L534.023 26.0845C534.858 22.8879 535.521 19.5162 536.007 15.9635L530.062 15.1503ZM525.265 33.3293C523.987 36.354 522.509 39.1387 520.844 41.7003L525.875 44.9704C527.74 42.1011 529.382 39.0021 530.792 35.664L525.265 33.3293ZM515.082 48.9603C512.936 51.1891 510.586 53.2026 508.039 55.0149L511.518 59.9034C514.356 57.8837 516.991 55.6286 519.404 53.122L515.082 48.9603ZM499.907 59.8184C497.169 61.1528 494.263 62.3245 491.195 63.3424L493.084 69.0372C496.383 67.9427 499.538 66.6728 502.535 65.2119L499.907 59.8184ZM481.946 65.8498C478.869 66.5171 475.667 67.0625 472.344 67.4935L473.116 73.4437C476.59 72.993 479.961 72.4199 483.218 71.7135L481.946 65.8498ZM462.806 68.403C459.601 68.6072 456.306 68.7232 452.926 68.7571L452.986 74.7568C456.464 74.7219 459.867 74.6024 463.187 74.3908L462.806 68.403ZM443.275 68.6438C440.042 68.5401 436.744 68.3727 433.384 68.1465L432.981 74.1329C436.405 74.3635 439.774 74.5346 443.083 74.6407L443.275 68.6438ZM423.684 67.3504C420.439 67.0392 417.145 66.6808 413.805 66.2796L413.089 72.2367C416.473 72.6433 419.815 73.0068 423.111 73.323L423.684 67.3504ZM404.13 65.0184C400.875 64.5627 397.583 64.072 394.255 63.5497L393.325 69.4772C396.682 70.0041 400.008 70.4998 403.298 70.9604L404.13 65.0184ZM384.627 61.9701C381.388 61.417 378.12 60.8385 374.826 60.2377L373.75 66.1403C377.064 66.7448 380.354 67.3273 383.617 67.8845L384.627 61.9701ZM365.165 58.4285C361.947 57.8111 358.706 57.1761 355.447 56.5262L354.274 62.4103C357.546 63.0628 360.8 63.7007 364.035 64.3211L365.165 58.4285ZM345.734 54.5595C342.527 53.9011 339.305 53.2314 336.068 52.5531L334.838 58.4254C338.08 59.1052 341.311 59.7766 344.528 60.4369L345.734 54.5595ZM326.329 50.4963C323.123 49.815 319.906 49.1279 316.68 48.4375L315.425 54.3046C318.652 54.9953 321.872 55.6831 325.082 56.3652L326.329 50.4963ZM306.979 46.3592C303.752 45.668 300.518 44.976 297.28 44.2859L296.029 50.1541C299.264 50.8435 302.496 51.535 305.722 52.2261L306.979 46.3592ZM287.583 42.2295C284.347 41.5474 281.109 40.8695 277.87 40.1985L276.652 46.0737C279.883 46.7431 283.115 47.4195 286.346 48.1005L287.583 42.2295ZM268.137 38.2048C264.894 37.5487 261.653 36.902 258.415 36.2671L257.26 42.1549C260.485 42.7873 263.715 43.4317 266.947 44.0857L268.137 38.2048ZM248.643 34.3868C245.379 33.7714 242.121 33.1708 238.871 32.5874L237.811 38.4931C241.042 39.0731 244.283 39.6706 247.532 40.2829L248.643 34.3868ZM229.102 30.8842C225.804 30.3271 222.516 29.7907 219.242 29.2778L218.314 35.2055C221.563 35.7144 224.826 36.247 228.102 36.8004L229.102 30.8842ZM209.46 27.8123C206.133 27.3377 202.821 26.8906 199.528 26.4742L198.776 32.4268C202.035 32.839 205.315 33.2818 208.613 33.7522L209.46 27.8123ZM189.661 25.3149C186.326 24.9543 183.013 24.629 179.724 24.3422L179.203 30.3196C182.448 30.6025 185.72 30.9237 189.016 31.2801L189.661 25.3149ZM169.756 23.59C166.416 23.3787 163.104 23.212 159.824 23.0937L159.607 29.0898C162.831 29.2061 166.088 29.3699 169.378 29.578L169.756 23.59ZM149.761 22.8854C146.414 22.87 143.105 22.9112 139.835 23.013L140.022 29.01C143.216 28.9106 146.454 28.8703 149.734 28.8853L149.761 22.8854ZM129.721 23.5357C126.37 23.7813 123.067 24.0991 119.817 24.4942L120.541 30.4504C123.691 30.0675 126.898 29.7587 130.159 29.5197L129.721 23.5357ZM109.758 25.9993C106.425 26.5972 103.155 27.2885 99.953 28.0793L101.391 33.9043C104.461 33.1463 107.604 32.4815 110.818 31.905L109.758 25.9993ZM90.1624 30.8848C86.9194 31.9517 83.7582 33.1382 80.6853 34.4519L83.0439 39.9689C85.95 38.7265 88.9493 37.6002 92.0374 36.5843L90.1624 30.8848ZM71.5178 38.9027C68.5208 40.5466 65.627 42.3358 62.8438 44.2784L66.2778 49.1985C68.878 47.3836 71.5882 45.7075 74.4034 44.1632L71.5178 38.9027ZM54.7876 50.615C52.2603 52.8516 49.8511 55.2445 47.5667 57.8007L52.0406 61.7988C54.1676 59.4187 56.4105 57.1909 58.7639 55.1082L54.7876 50.615ZM41.1815 65.8427C39.2669 68.5612 37.4709 71.4282 35.7981 74.449L41.0471 77.3556C42.6173 74.52 44.2991 71.8362 46.087 69.2976L41.1815 65.8427ZM31.3109 83.613C30.0106 86.632 28.8164 89.7809 27.7315 93.0637L33.4284 94.9464C34.4604 91.8238 35.5929 88.8389 36.8215 85.9865L31.3109 83.613ZM24.9211 102.854C24.1476 105.993 23.4622 109.24 22.8671 112.597L28.7751 113.644C29.348 110.412 30.0063 107.295 30.7468 104.29L24.9211 102.854ZM21.3714 122.864C21.0088 125.993 20.7169 129.21 20.4971 132.516L26.4839 132.914C26.6974 129.702 26.9807 126.583 27.3315 123.555L21.3714 122.864ZM20.0556 142.702C20.0186 144.445 20 146.211 20 148L26 148C26 146.253 26.0182 144.529 26.0543 142.83L20.0556 142.702Z" fill="#585858"/>
</svg>
