<svg width="697" height="169" viewBox="0 0 697 169" fill="none" xmlns="http://www.w3.org/2000/svg">
<path d="M22.5032 166.388C23.1121 166.95 24.0611 166.911 24.6228 166.303L33.7764 156.38C34.3381 155.771 34.2998 154.822 33.6909 154.26C33.082 153.698 32.133 153.737 31.5713 154.346L23.4348 163.166L14.6145 155.029C14.0056 154.468 13.0566 154.506 12.4949 155.115C11.9332 155.724 11.9715 156.673 12.5804 157.234L22.5032 166.388ZM691.855 5.23594C691.808 6.06305 692.441 6.77145 693.268 6.81821C694.095 6.86496 694.803 6.23236 694.85 5.40526L691.855 5.23594ZM693.664 15.5265C693.813 14.7116 693.273 13.9301 692.458 13.781C691.643 13.6319 690.862 14.1716 690.713 14.9865L693.664 15.5265ZM688.233 24.524C687.963 25.3072 688.379 26.161 689.162 26.431C689.946 26.7009 690.799 26.2849 691.069 25.5017L688.233 24.524ZM686.968 34.8041C687.366 34.0775 687.1 33.1659 686.373 32.768C685.646 32.37 684.735 32.6364 684.337 33.363L686.968 34.8041ZM678.857 41.5235C678.335 42.1668 678.434 43.1114 679.077 43.6333C679.721 44.1552 680.665 44.0568 681.187 43.4134L678.857 41.5235ZM674.075 50.7829C674.698 50.2368 674.76 49.2891 674.214 48.6661C673.668 48.0432 672.72 47.9809 672.097 48.527L674.075 50.7829ZM664.15 54.4736C663.452 54.9203 663.249 55.8479 663.695 56.5457C664.142 57.2434 665.069 57.4469 665.767 57.0003L664.15 54.4736ZM656.941 61.8987C657.687 61.5399 658.002 60.6437 657.643 59.897C657.284 59.1503 656.388 58.8359 655.641 59.1947L656.941 61.8987ZM646.384 63.062C645.605 63.3439 645.202 64.204 645.484 64.983C645.766 65.7619 646.626 66.1649 647.405 65.8829L646.384 63.062ZM637.803 68.9204C638.602 68.7008 639.071 67.8752 638.852 67.0764C638.632 66.2776 637.806 65.8081 637.008 66.0277L637.803 68.9204ZM627.218 68.3671C626.406 68.5342 625.884 69.3275 626.051 70.1389C626.218 70.9502 627.012 71.4725 627.823 71.3054L627.218 68.3671ZM617.922 73.0686C618.741 72.944 619.304 72.179 619.179 71.36C619.054 70.541 618.289 69.9781 617.47 70.1027L617.922 73.0686ZM607.41 71.4006C606.586 71.4891 605.99 72.2286 606.079 73.0523C606.167 73.8759 606.906 74.472 607.73 74.3835L607.41 71.4006ZM597.787 75.2672C598.613 75.2082 599.235 74.4905 599.176 73.6642C599.117 72.8378 598.399 72.2158 597.573 72.2748L597.787 75.2672ZM587.326 72.8418C586.498 72.875 585.854 73.573 585.887 74.4007C585.921 75.2285 586.619 75.8726 587.446 75.8394L587.326 72.8418ZM577.549 76.1077C578.378 76.0955 579.039 75.4141 579.027 74.5857C579.015 73.7574 578.333 73.0958 577.505 73.108L577.549 76.1077ZM567.389 73.1411C566.561 73.1348 565.884 73.8012 565.878 74.6296C565.871 75.458 566.538 76.1347 567.366 76.141L567.389 73.1411ZM557.25 75.9646C558.078 75.9868 558.768 75.3334 558.79 74.5053C558.812 73.6772 558.159 72.9879 557.331 72.9657L557.25 75.9646ZM547.359 72.6145C546.532 72.5787 545.832 73.2206 545.796 74.0483C545.76 74.8759 546.402 75.5759 547.23 75.6117L547.359 72.6145ZM536.984 75.0917C537.811 75.1396 538.521 74.508 538.568 73.6809C538.616 72.8539 537.985 72.1446 537.158 72.0967L536.984 75.0917ZM527.239 71.4592C526.413 71.4011 525.696 72.0239 525.638 72.8503C525.58 73.6766 526.203 74.3937 527.029 74.4518L527.239 71.4592ZM516.97 73.6877C517.796 73.7548 518.52 73.1399 518.587 72.3142C518.654 71.4885 518.039 70.7647 517.213 70.6976L516.97 73.6877ZM507.053 69.8205C506.228 69.7454 505.498 70.3533 505.423 71.1783C505.348 72.0033 505.955 72.733 506.78 72.8082L507.053 69.8205ZM496.862 71.8631C497.686 71.945 498.421 71.3431 498.503 70.5187C498.585 69.6943 497.983 68.9597 497.159 68.8778L496.862 71.8631ZM487.131 67.8446C486.307 67.7568 485.568 68.3534 485.48 69.1771C485.392 70.0009 485.989 70.7399 486.813 70.8277L487.131 67.8446ZM476.696 69.7166C477.519 69.8096 478.262 69.2176 478.355 68.3944C478.448 67.5712 477.856 66.8285 477.032 66.7356L476.696 69.7166ZM467.118 65.5893C466.296 65.4921 465.55 66.0802 465.453 66.9029C465.355 67.7256 465.944 68.4713 466.766 68.5686L467.118 65.5893ZM456.742 67.3604C457.564 67.4613 458.313 66.8765 458.414 66.0543C458.515 65.232 457.93 64.4836 457.108 64.3827L456.742 67.3604ZM447.041 63.1277C446.219 63.0237 445.469 63.6057 445.365 64.4276C445.261 65.2494 445.843 66 446.665 66.104L447.041 63.1277ZM436.73 64.8317C437.551 64.9381 438.303 64.3583 438.41 63.5367C438.516 62.7152 437.936 61.9629 437.115 61.8565L436.73 64.8317ZM427.122 60.5502C426.301 60.4419 425.547 61.0199 425.439 61.8412C425.331 62.6625 425.909 63.4161 426.73 63.5244L427.122 60.5502ZM416.679 62.1901C417.5 62.2998 418.254 61.723 418.364 60.9019C418.474 60.0808 417.897 59.3262 417.076 59.2165L416.679 62.1901ZM407.132 57.8828C406.311 57.7723 405.556 58.3483 405.446 59.1693C405.335 59.9903 405.911 60.7455 406.732 60.856L407.132 57.8828ZM396.748 59.5091C397.569 59.62 398.324 59.0444 398.435 58.2234C398.546 57.4025 397.97 56.647 397.149 56.5361L396.748 59.5091ZM387.134 55.1835C386.313 55.0727 385.558 55.6484 385.447 56.4694C385.336 57.2904 385.912 58.0457 386.733 58.1565L387.134 55.1835ZM376.755 56.813C377.576 56.9232 378.331 56.347 378.441 55.5259C378.551 54.7048 377.975 53.9499 377.154 53.8396L376.755 56.813ZM367.167 52.5047C366.346 52.3955 365.591 52.9727 365.482 53.7939C365.373 54.6151 365.95 55.3694 366.771 55.4786L367.167 52.5047ZM356.782 54.159C357.603 54.2667 358.356 53.6881 358.464 52.8667C358.572 52.0453 357.993 51.2922 357.172 51.1845L356.782 54.159ZM347.163 49.8838C346.341 49.7781 345.589 50.3585 345.483 51.1801C345.378 52.0018 345.958 52.7536 346.78 52.8593L347.163 49.8838ZM336.782 51.5875C337.604 51.6907 338.354 51.1081 338.457 50.2862C338.56 49.4642 337.978 48.7142 337.156 48.6109L336.782 51.5875ZM327.165 47.3733C326.343 47.2729 325.595 47.8582 325.495 48.6806C325.394 49.5029 325.979 50.2509 326.802 50.3512L327.165 47.3733ZM316.79 49.1505C317.612 49.2473 318.358 48.6589 318.455 47.8361C318.552 47.0134 317.963 46.2679 317.141 46.171L316.79 49.1505ZM307.1 45.0131C306.277 44.9202 305.534 45.5123 305.441 46.3355C305.348 47.1587 305.94 47.9013 306.763 47.9942L307.1 45.0131ZM296.78 46.8953C297.604 46.9836 298.343 46.3875 298.432 45.5638C298.52 44.7401 297.924 44.0007 297.1 43.9124L296.78 46.8953ZM287.069 42.8681C286.245 42.785 285.509 43.3857 285.426 44.21C285.343 45.0342 285.944 45.7698 286.768 45.853L287.069 42.8681ZM276.704 44.8729C277.528 44.9502 278.26 44.3443 278.337 43.5195C278.414 42.6946 277.808 41.9633 276.984 41.886L276.704 44.8729ZM266.966 40.9859C266.141 40.9151 265.414 41.5267 265.343 42.3521C265.273 43.1775 265.884 43.9041 266.71 43.9749L266.966 40.9859ZM256.698 43.159C257.524 43.2226 258.246 42.6046 258.309 41.7786C258.373 40.9526 257.755 40.2315 256.929 40.1678L256.698 43.159ZM246.795 39.4365C245.968 39.381 245.253 40.0061 245.198 40.8327C245.142 41.6592 245.767 42.3743 246.594 42.4298L246.795 39.4365ZM236.592 41.8115C237.419 41.858 238.128 41.2253 238.174 40.3982C238.221 39.571 237.588 38.8628 236.761 38.8162L236.592 41.8115ZM226.703 38.3092C225.875 38.2726 225.175 38.9138 225.138 39.7414C225.102 40.569 225.743 41.2696 226.57 41.3063L226.703 38.3092ZM216.439 40.9246C217.267 40.9501 217.959 40.2996 217.984 39.4715C218.01 38.6435 217.359 37.9515 216.531 37.926L216.439 40.9246ZM206.498 37.6894C205.669 37.6761 204.987 38.3368 204.974 39.1651C204.96 39.9935 205.621 40.6757 206.449 40.6891L206.498 37.6894ZM196.392 40.6088C197.221 40.6084 197.892 39.9366 197.892 39.1082C197.891 38.2797 197.219 37.6084 196.391 37.6088L196.392 40.6088ZM186.216 37.7054C185.387 37.7211 184.729 38.4053 184.744 39.2335C184.76 40.0618 185.444 40.7206 186.272 40.7049L186.216 37.7054ZM176.345 40.9917C177.172 40.9592 177.817 40.2618 177.785 39.434C177.752 38.6062 177.055 37.9615 176.227 37.994L176.345 40.9917ZM166.039 38.5099C165.212 38.5615 164.583 39.2737 164.635 40.1005C164.687 40.9273 165.399 41.5557 166.226 41.504L166.039 38.5099ZM156.202 42.2583C157.027 42.1853 157.636 41.4571 157.563 40.6319C157.49 39.8067 156.762 39.197 155.937 39.27L156.202 42.2583ZM146.003 40.291C145.18 40.3877 144.591 41.1331 144.688 41.9559C144.785 42.7787 145.53 43.3672 146.353 43.2704L146.003 40.291ZM136.259 44.626C137.078 44.5017 137.641 43.7369 137.517 42.9179C137.393 42.0988 136.628 41.5356 135.809 41.66L136.259 44.626ZM125.93 43.3435C125.117 43.4982 124.582 44.2833 124.737 45.0972C124.892 45.911 125.677 46.4454 126.491 46.2908L125.93 43.3435ZM116.621 48.3829C117.428 48.1932 117.928 47.3857 117.738 46.5793C117.549 45.7729 116.741 45.2729 115.935 45.4626L116.621 48.3829ZM106.127 48.0188C105.331 48.2478 104.871 49.0789 105.1 49.875C105.329 50.6712 106.16 51.1309 106.956 50.902L106.127 48.0188ZM97.4719 53.9136C98.2539 53.6403 98.6663 52.7848 98.393 52.0028C98.1197 51.2207 97.2642 50.8083 96.4822 51.0816L97.4719 53.9136ZM86.9429 54.7597C86.1802 55.0832 85.8243 55.9638 86.1479 56.7264C86.4715 57.489 87.352 57.8449 88.1147 57.5213L86.9429 54.7597ZM79.1681 61.7026C79.9049 61.3239 80.1953 60.4197 79.8166 59.6828C79.4379 58.946 78.5336 58.6557 77.7968 59.0344L79.1681 61.7026ZM68.8714 64.1003C68.1693 64.5399 67.9566 65.4655 68.3962 66.1677C68.8359 66.8698 69.7615 67.0826 70.4636 66.6429L68.8714 64.1003ZM62.3612 72.2508C63.0191 71.7475 63.1445 70.806 62.6411 70.148C62.1378 69.4901 61.1964 69.3647 60.5384 69.868L62.3612 72.2508ZM52.7244 76.5052C52.122 77.0739 52.0946 78.0232 52.6633 78.6257C53.232 79.2281 54.1813 79.2554 54.7837 78.6867L52.7244 76.5052ZM47.9931 85.8322C48.5299 85.2012 48.4535 84.2545 47.8225 83.7178C47.1915 83.181 46.2448 83.2574 45.708 83.8884L47.9931 85.8322ZM39.5335 92.0326C39.0708 92.7199 39.253 93.652 39.9402 94.1146C40.6275 94.5772 41.5596 94.3951 42.0222 93.7078L39.5335 92.0326ZM36.9698 102.199C37.3536 101.465 37.0695 100.559 36.3353 100.175C35.6011 99.7915 34.6949 100.076 34.3111 100.81L36.9698 102.199ZM30.0844 110.06C29.7796 110.83 30.157 111.702 30.9272 112.007C31.6976 112.311 32.5691 111.934 32.8739 111.164L30.0844 110.06ZM29.6687 120.608C29.8969 119.812 29.4365 118.981 28.6401 118.753C27.8438 118.524 27.0131 118.985 26.7848 119.781L29.6687 120.608ZM24.442 129.548C24.2829 130.361 24.813 131.149 25.626 131.308C26.439 131.467 27.227 130.937 27.3861 130.124L24.442 129.548ZM25.8287 140.25C25.9227 139.427 25.3317 138.683 24.5086 138.589C23.6855 138.495 22.9421 139.086 22.8481 139.909L25.8287 140.25ZM22.0613 149.674C22.0213 150.502 22.6596 151.205 23.487 151.245C24.3145 151.285 25.0178 150.647 25.0578 149.82L22.0613 149.674ZM24.8802 159.947C24.8703 159.119 24.1907 158.455 23.3624 158.465C22.534 158.475 21.8705 159.155 21.8804 159.983L24.8802 159.947ZM692 -0.000453833C692 1.78595 691.951 3.53114 691.855 5.23594L694.85 5.40526C694.95 3.64214 695 1.84045 695 -0.000451313L692 -0.000453833ZM690.713 14.9865C690.098 18.3447 689.268 21.5209 688.233 24.524L691.069 25.5017C692.156 22.349 693.023 19.026 693.664 15.5265L690.713 14.9865ZM684.337 33.363C682.744 36.2714 680.914 38.988 678.857 41.5235L681.187 43.4134C683.357 40.739 685.288 37.8723 686.968 34.8041L684.337 33.363ZM672.097 48.527C669.656 50.6672 667.004 52.6467 664.15 54.4736L665.767 57.0003C668.739 55.0978 671.513 53.0287 674.075 50.7829L672.097 48.527ZM655.641 59.1947C652.713 60.602 649.625 61.8891 646.384 63.062L647.405 65.8829C650.732 64.6786 653.914 63.3532 656.941 61.8987L655.641 59.1947ZM637.008 66.0277C633.858 66.8935 630.593 67.6717 627.218 68.3671L627.823 71.3054C631.257 70.598 634.586 69.8048 637.803 68.9204L637.008 66.0277ZM617.47 70.1027C614.203 70.5999 610.848 71.0314 607.41 71.4006L607.73 74.3835C611.209 74.0099 614.607 73.5729 617.922 73.0686L617.47 70.1027ZM597.573 72.2748C594.225 72.5141 590.808 72.702 587.326 72.8418L587.446 75.8394C590.957 75.6985 594.405 75.5088 597.787 75.2672L597.573 72.2748ZM577.505 73.108C574.184 73.157 570.811 73.1672 567.389 73.1411L567.366 76.141C570.809 76.1673 574.205 76.157 577.549 76.1077L577.505 73.108ZM557.331 72.9657C554.047 72.8777 550.722 72.76 547.359 72.6145L547.23 75.6117C550.608 75.7579 553.949 75.8762 557.25 75.9646L557.331 72.9657ZM537.158 72.0967C533.884 71.9071 530.577 71.694 527.239 71.4592L527.029 74.4518C530.378 74.6874 533.697 74.9013 536.984 75.0917L537.158 72.0967ZM517.213 70.6976C513.854 70.4243 510.466 70.1314 507.053 69.8205L506.78 72.8082C510.203 73.1199 513.6 73.4136 516.97 73.6877L517.213 70.6976ZM497.159 68.8778C493.838 68.548 490.494 68.2031 487.131 67.8446L486.813 70.8277C490.183 71.1869 493.534 71.5325 496.862 71.8631L497.159 68.8778ZM477.032 66.7356C473.745 66.3644 470.44 65.9819 467.118 65.5893L466.766 68.5686C470.092 68.9617 473.403 69.3449 476.696 69.7166L477.032 66.7356ZM457.108 64.3827C453.766 63.9726 450.41 63.5538 447.041 63.1277L446.665 66.104C450.037 66.5305 453.397 66.9498 456.742 67.3604L457.108 64.3827ZM437.115 61.8565C433.794 61.4265 430.463 60.9907 427.122 60.5502L426.73 63.5244C430.073 63.9652 433.407 64.4014 436.73 64.8317L437.115 61.8565ZM417.076 59.2165C413.769 58.7749 410.454 58.3299 407.132 57.8828L406.732 60.856C410.055 61.3032 413.37 61.7483 416.679 62.1901L417.076 59.2165ZM397.149 56.5361C393.816 56.0859 390.477 55.6346 387.134 55.1835L386.733 58.1565C390.075 58.6076 393.414 59.0588 396.748 59.5091L397.149 56.5361ZM377.154 53.8396C373.827 53.393 370.498 52.9476 367.167 52.5047L366.771 55.4786C370.101 55.9213 373.429 56.3664 376.755 56.813L377.154 53.8396ZM357.172 51.1845C353.835 50.747 350.498 50.313 347.163 49.8838L346.78 52.8593C350.113 53.2881 353.447 53.7218 356.782 54.159L357.172 51.1845ZM337.156 48.6109C333.822 48.1921 330.492 47.7791 327.165 47.3733L326.802 50.3512C330.125 50.7566 333.452 51.1691 336.782 51.5875L337.156 48.6109ZM317.141 46.171C313.788 45.7763 310.44 45.3899 307.1 45.0131L306.763 47.9942C310.099 48.3704 313.441 48.7562 316.79 49.1505L317.141 46.171ZM297.1 43.9124C293.748 43.553 290.403 43.2045 287.069 42.8681L286.768 45.853C290.096 46.1887 293.434 46.5365 296.78 46.8953L297.1 43.9124ZM276.984 41.886C273.633 41.5719 270.293 41.2714 266.966 40.9859L266.71 43.9749C270.028 44.2597 273.36 44.5595 276.704 44.8729L276.984 41.886ZM256.929 40.1678C253.535 39.9065 250.157 39.6623 246.795 39.4365L246.594 42.4298C249.945 42.6548 253.314 42.8983 256.698 43.159L256.929 40.1678ZM236.761 38.8162C233.389 38.6263 230.036 38.4569 226.703 38.3092L226.57 41.3063C229.891 41.4534 233.232 41.6222 236.592 41.8115L236.761 38.8162ZM216.531 37.926C213.163 37.8222 209.818 37.7428 206.498 37.6894L206.449 40.6891C209.754 40.7422 213.085 40.8212 216.439 40.9246L216.531 37.926ZM196.391 37.6088C192.969 37.6102 189.577 37.6418 186.216 37.7054L186.272 40.7049C189.614 40.6417 192.988 40.6102 196.392 40.6088L196.391 37.6088ZM176.227 37.994C172.794 38.1287 169.397 38.3 166.039 38.5099L166.226 41.504C169.56 41.2956 172.934 41.1255 176.345 40.9917L176.227 37.994ZM155.937 39.27C152.582 39.567 149.27 39.9066 146.003 40.291L146.353 43.2704C149.591 42.8896 152.874 42.5529 156.202 42.2583L155.937 39.27ZM135.809 41.66C132.463 42.1678 129.169 42.7282 125.93 43.3435L126.491 46.2908C129.69 45.6827 132.948 45.1286 136.259 44.626L135.809 41.66ZM115.935 45.4626C112.597 46.2474 109.327 47.0984 106.127 48.0188L106.956 50.902C110.106 49.9959 113.329 49.1571 116.621 48.3829L115.935 45.4626ZM96.4822 51.0816C93.2164 52.2229 90.035 53.4476 86.9429 54.7597L88.1147 57.5213C91.1437 56.2361 94.2641 55.0347 97.4719 53.9136L96.4822 51.0816ZM77.7968 59.0344C74.7146 60.6185 71.7376 62.3055 68.8714 64.1003L70.4636 66.6429C73.2545 64.8953 76.1576 63.2499 79.1681 61.7026L77.7968 59.0344ZM60.5384 69.868C57.8062 71.9581 55.1994 74.1688 52.7244 76.5052L54.7837 78.6867C57.181 76.4238 59.7085 74.28 62.3612 72.2508L60.5384 69.868ZM45.708 83.8884C43.5098 86.4725 41.4497 89.1857 39.5335 92.0326L42.0222 93.7078C43.8751 90.9549 45.8672 88.3314 47.9931 85.8322L45.708 83.8884ZM34.3111 100.81C32.7648 103.768 31.3543 106.85 30.0844 110.06L32.8739 111.164C34.1059 108.05 35.4729 105.063 36.9698 102.199L34.3111 100.81ZM26.7848 119.781C25.8826 122.928 25.1006 126.183 24.442 129.548L27.3861 130.124C28.0288 126.84 28.7909 123.669 29.6687 120.608L26.7848 119.781ZM22.8481 139.909C22.4864 143.075 22.2234 146.33 22.0613 149.674L25.0578 149.82C25.2169 146.537 25.4747 143.348 25.8287 140.25L22.8481 139.909ZM21.8804 159.983C21.9015 161.747 21.9485 163.535 22.0214 165.346L25.0191 165.225C24.9471 163.442 24.901 161.683 24.8802 159.947L21.8804 159.983ZM21.4861 167.491C22.704 168.614 24.6019 168.537 25.7253 167.32L44.0324 147.474C45.1559 146.256 45.0793 144.358 43.8615 143.235C42.6437 142.111 40.7458 142.188 39.6223 143.406L23.3493 161.046L5.70877 144.773C4.49096 143.65 2.59301 143.726 1.46955 144.944C0.346151 146.162 0.422655 148.06 1.64053 149.183L21.4861 167.491ZM690.357 5.15128C690.264 6.80549 691.529 8.22231 693.183 8.31582C694.837 8.40933 696.254 7.14413 696.348 5.48991L690.357 5.15128ZM695.139 15.7965C695.437 14.1668 694.358 12.6038 692.728 12.3055C691.098 12.0072 689.536 13.0867 689.237 14.7165L695.139 15.7965ZM686.815 24.0352C686.275 25.6016 687.107 27.3091 688.673 27.8491C690.24 28.389 691.947 27.5569 692.487 25.9905L686.815 24.0352ZM688.284 35.5246C689.08 34.0715 688.547 32.2482 687.094 31.4523C685.64 30.6565 683.817 31.1893 683.021 32.6425L688.284 35.5246ZM677.692 40.5785C676.649 41.8652 676.846 43.7545 678.132 44.7983C679.419 45.842 681.308 45.6451 682.352 44.3583L677.692 40.5785ZM675.064 51.9108C676.31 50.8187 676.434 48.9233 675.342 47.6773C674.25 46.4314 672.354 46.3068 671.108 47.399L675.064 51.9108ZM663.341 53.2103C661.946 54.1035 661.539 55.9589 662.432 57.3543C663.325 58.7498 665.18 59.1569 666.576 58.2636L663.341 53.2103ZM657.59 63.2507C659.084 62.5331 659.713 60.7407 658.995 59.2473C658.277 57.754 656.485 57.1251 654.992 57.8427L657.59 63.2507ZM645.873 61.6515C644.316 62.2154 643.51 63.9355 644.074 65.4935C644.637 67.0514 646.358 67.8573 647.915 67.2934L645.873 61.6515ZM638.2 70.3667C639.798 69.9275 640.737 68.2764 640.298 66.6788C639.859 65.0812 638.208 64.1422 636.61 64.5814L638.2 70.3667ZM626.915 66.8979C625.292 67.2322 624.248 68.8187 624.582 70.4415C624.916 72.0643 626.503 73.1088 628.126 72.7745L626.915 66.8979ZM618.147 74.5515C619.785 74.3023 620.911 72.7724 620.662 71.1344C620.413 69.4964 618.883 68.3705 617.245 68.6198L618.147 74.5515ZM607.25 69.9092C605.602 70.0862 604.41 71.5651 604.587 73.2125C604.764 74.8598 606.243 76.0518 607.89 75.8749L607.25 69.9092ZM597.894 76.7634C599.546 76.6454 600.79 75.2099 600.672 73.5573C600.554 71.9046 599.119 70.6606 597.466 70.7787L597.894 76.7634ZM587.266 71.343C585.61 71.4094 584.322 72.8054 584.389 74.4609C584.455 76.1164 585.851 77.4046 587.506 77.3382L587.266 71.343ZM577.571 77.6075C579.228 77.5831 580.551 76.2203 580.527 74.5636C580.502 72.9069 579.14 71.5837 577.483 71.6082L577.571 77.6075ZM567.4 71.6412C565.744 71.6285 564.39 72.9614 564.378 74.6182C564.365 76.275 565.698 77.6284 567.355 77.641L567.4 71.6412ZM557.21 77.4641C558.866 77.5084 560.245 76.2017 560.289 74.5455C560.334 72.8892 559.027 71.5106 557.371 71.4662L557.21 77.4641ZM547.424 71.1159C545.769 71.0443 544.369 72.3281 544.297 73.9834C544.226 75.6388 545.509 77.0387 547.165 77.1103L547.424 71.1159ZM536.897 76.5892C538.552 76.685 539.97 75.4217 540.066 73.7676C540.162 72.1136 538.898 70.695 537.244 70.5992L536.897 76.5892ZM527.345 69.9629C525.692 69.8466 524.258 71.0922 524.142 72.745C524.025 74.3978 525.271 75.8319 526.924 75.9481L527.345 69.9629ZM516.849 75.1827C518.5 75.3171 519.948 74.0872 520.082 72.4358C520.216 70.7844 518.987 69.3368 517.335 69.2025L516.849 75.1827ZM507.189 68.3267C505.539 68.1764 504.079 69.3923 503.929 71.0423C503.779 72.6923 504.994 74.1517 506.644 74.302L507.189 68.3267ZM496.714 73.3558C498.363 73.5195 499.832 72.3157 499.996 70.6669C500.159 69.0182 498.956 67.5489 497.307 67.3851L496.714 73.3558ZM487.29 66.353C485.642 66.1774 484.164 67.3706 483.988 69.0182C483.813 70.6657 485.006 72.1436 486.654 72.3192L487.29 66.353ZM476.528 71.2072C478.174 71.393 479.659 70.2091 479.845 68.5627C480.031 66.9163 478.847 65.4309 477.201 65.245L476.528 71.2072ZM467.295 64.0997C465.649 63.9052 464.158 65.0814 463.963 66.7268C463.769 68.3722 464.945 69.8637 466.59 70.0582L467.295 64.0997ZM456.559 68.8492C458.204 69.051 459.701 67.8815 459.902 66.237C460.104 64.5925 458.935 63.0957 457.29 62.8939L456.559 68.8492ZM447.229 61.6395C445.586 61.4316 444.085 62.5956 443.877 64.2393C443.669 65.8831 444.833 67.3842 446.476 67.5921L447.229 61.6395ZM436.537 66.3193C438.18 66.532 439.685 65.3725 439.897 63.7294C440.11 62.0863 438.951 60.5817 437.307 60.3689L436.537 66.3193ZM427.318 59.063C425.675 58.8465 424.168 60.0025 423.952 61.6452C423.735 63.2878 424.891 64.795 426.534 65.0116L427.318 59.063ZM416.48 63.6769C418.122 63.8963 419.632 62.7427 419.851 61.1005C420.07 59.4582 418.917 57.9491 417.274 57.7297L416.48 63.6769ZM407.333 56.3962C405.69 56.1752 404.18 57.3272 403.959 58.9692C403.738 60.6112 404.89 62.1216 406.532 62.3426L407.333 56.3962ZM396.547 60.9956C398.189 61.2174 399.7 60.0662 399.921 58.4242C400.143 56.7823 398.992 55.2714 397.35 55.0496L396.547 60.9956ZM387.335 53.6969C385.693 53.4753 384.182 54.6268 383.96 56.2688C383.739 57.9107 384.89 59.4214 386.532 59.643L387.335 53.6969ZM376.555 58.2996C378.197 58.5201 379.707 57.3676 379.928 55.7255C380.148 54.0834 378.996 52.5734 377.354 52.353L376.555 58.2996ZM367.364 51.0178C365.722 50.7994 364.214 51.9538 363.995 53.5962C363.777 55.2386 364.931 56.7471 366.574 56.9655L367.364 51.0178ZM356.587 55.6463C358.23 55.8617 359.736 54.7045 359.951 53.0617C360.167 51.419 359.009 49.9126 357.367 49.6972L356.587 55.6463ZM347.354 48.3961C345.711 48.1846 344.207 49.3454 343.996 50.9887C343.784 52.632 344.945 54.1356 346.588 54.347L347.354 48.3961ZM336.595 53.0758C338.239 53.2823 339.739 52.1171 339.945 50.4732C340.152 48.8292 338.987 47.3291 337.343 47.1226L336.595 53.0758ZM327.347 45.8843C325.702 45.6836 324.206 46.8542 324.006 48.4989C323.805 50.1435 324.975 51.6395 326.62 51.8401L327.347 45.8843ZM316.614 50.6402C318.26 50.8339 319.751 49.657 319.945 48.0115C320.138 46.3661 318.961 44.8751 317.316 44.6813L316.614 50.6402ZM307.268 43.5225C305.622 43.3368 304.136 44.5209 303.951 46.1673C303.765 47.8137 304.949 49.299 306.595 49.4847L307.268 43.5225ZM296.62 48.3868C298.268 48.5634 299.746 47.3711 299.923 45.7237C300.1 44.0763 298.907 42.5976 297.26 42.421L296.62 48.3868ZM287.22 41.3757C285.571 41.2094 284.1 42.4109 283.934 44.0594C283.767 45.7079 284.969 47.1791 286.617 47.3454L287.22 41.3757ZM276.564 46.3664C278.213 46.521 279.676 45.3091 279.83 43.6595C279.985 42.0098 278.773 40.5472 277.124 40.3926L276.564 46.3664ZM267.094 39.4914C265.444 39.3497 263.991 40.5731 263.849 42.2238C263.707 43.8746 264.931 45.3277 266.581 45.4694L267.094 39.4914ZM256.583 44.6546C258.235 44.7818 259.678 43.5458 259.805 41.8938C259.932 40.2418 258.696 38.7995 257.044 38.6723L256.583 44.6546ZM246.895 37.9399C245.242 37.8289 243.812 39.079 243.701 40.7322C243.59 42.3853 244.84 43.8154 246.493 43.9264L246.895 37.9399ZM236.508 43.3091C238.162 43.4022 239.579 42.1367 239.672 40.4825C239.765 38.8283 238.499 37.4117 236.845 37.3186L236.508 43.3091ZM226.769 36.8107C225.114 36.7374 223.713 38.0198 223.64 39.675C223.566 41.3303 224.849 42.7315 226.504 42.8048L226.769 36.8107ZM216.393 42.4239C218.049 42.4749 219.432 41.1738 219.483 39.5177C219.535 37.8617 218.233 36.4778 216.577 36.4267L216.393 42.4239ZM206.522 36.1896C204.865 36.163 203.5 37.4844 203.474 39.141C203.447 40.7977 204.769 42.1622 206.425 42.1889L206.522 36.1896ZM196.393 42.1088C198.05 42.1081 199.392 40.7644 199.392 39.1075C199.391 37.4507 198.047 36.1081 196.39 36.1088L196.393 42.1088ZM186.187 36.2057C184.531 36.237 183.213 37.6054 183.245 39.2619C183.276 40.9185 184.644 42.236 186.301 42.2046L186.187 36.2057ZM176.403 42.4905C178.059 42.4256 179.349 41.0308 179.284 39.3752C179.219 37.7196 177.824 36.4302 176.168 36.4951L176.403 42.4905ZM165.945 37.0128C164.291 37.1161 163.035 38.5404 163.138 40.1941C163.241 41.8477 164.666 43.1045 166.319 43.0011L165.945 37.0128ZM156.334 43.7525C157.984 43.6064 159.204 42.15 159.058 40.4996C158.911 38.8492 157.455 37.6297 155.805 37.7759L156.334 43.7525ZM145.827 38.8012C144.182 38.9948 143.005 40.4856 143.198 42.1311C143.392 43.7766 144.883 44.9537 146.528 44.7601L145.827 38.8012ZM136.484 46.109C138.122 45.8604 139.249 44.3309 139 42.6928C138.751 41.0547 137.222 39.9283 135.584 40.1769L136.484 46.109ZM125.65 41.8699C124.023 42.1792 122.954 43.7495 123.263 45.3772C123.573 47.0049 125.143 48.0737 126.771 47.7644L125.65 41.8699ZM116.965 49.8431C118.578 49.4637 119.578 47.8488 119.198 46.2359C118.819 44.6231 117.204 43.6231 115.591 44.0024L116.965 49.8431ZM105.712 46.5773C104.12 47.0352 103.2 48.6973 103.658 50.2896C104.116 51.8819 105.778 52.8015 107.371 52.3435L105.712 46.5773ZM97.9667 55.3297C99.5308 54.7831 100.356 53.072 99.809 51.5079C99.2624 49.9438 97.5514 49.119 95.9872 49.6656L97.9667 55.3297ZM86.3569 53.3788C84.8317 54.026 84.1199 55.7871 84.767 57.3123C85.4142 58.8375 87.1753 59.5494 88.7006 58.9022L86.3569 53.3788ZM79.8538 63.0367C81.3274 62.2794 81.9081 60.4708 81.1507 58.9972C80.3934 57.5235 78.5848 56.9429 77.1111 57.7003L79.8538 63.0367ZM68.0754 62.8289C66.6711 63.7083 66.2455 65.5595 67.1249 66.9638C68.0042 68.368 69.8554 68.7936 71.2597 67.9142L68.0754 62.8289ZM63.2725 73.4422C64.5885 72.4355 64.8392 70.5526 63.8325 69.2366C62.8258 67.9207 60.943 67.67 59.627 68.6767L63.2725 73.4422ZM51.6947 75.4145C50.4899 76.5518 50.4352 78.4505 51.5725 79.6553C52.7099 80.8602 54.6086 80.9149 55.8134 79.7775L51.6947 75.4145ZM49.1357 86.8041C50.2092 85.5421 50.0564 83.6488 48.7944 82.5752C47.5323 81.5017 45.639 81.6545 44.5655 82.9165L49.1357 86.8041ZM38.289 91.1951C37.3639 92.5696 37.7281 94.4338 39.1027 95.359C40.4771 96.2842 42.3414 95.9199 43.2666 94.5454L38.289 91.1951ZM38.2992 102.894C39.0667 101.426 38.4986 99.6134 37.0302 98.8459C35.5618 98.0784 33.7493 98.6465 32.9818 100.115L38.2992 102.894ZM28.6895 109.508C28.0799 111.049 28.8348 112.792 30.3754 113.401C31.9161 114.011 33.6592 113.256 34.2687 111.716L28.6895 109.508ZM31.1105 121.021C31.5672 119.429 30.6462 117.767 29.0535 117.311C27.4609 116.854 25.7996 117.775 25.3429 119.368L31.1105 121.021ZM22.9699 129.26C22.6517 130.886 23.7119 132.462 25.3379 132.78C26.9639 133.099 28.54 132.038 28.8582 130.412L22.9699 129.26ZM27.319 140.42C27.5071 138.774 26.3251 137.287 24.6789 137.099C23.0328 136.911 21.5458 138.093 21.3578 139.739L27.319 140.42ZM20.5631 149.602C20.4829 151.257 21.7595 152.663 23.4145 152.744C25.0693 152.824 26.4759 151.547 26.5561 149.892L20.5631 149.602ZM26.3801 159.929C26.3603 158.273 25.0012 156.946 23.3445 156.965C21.6877 156.985 20.3607 158.344 20.3806 160.001L26.3801 159.929ZM690.5 -0.000451408C690.5 1.7587 690.452 3.47564 690.357 5.15128L696.348 5.48991C696.449 3.69763 696.5 1.86769 696.5 -0.000453738L690.5 -0.000451408ZM689.237 14.7165C688.636 18.004 687.824 21.1069 686.815 24.0352L692.487 25.9905C693.6 22.7631 694.486 19.3667 695.139 15.7965L689.237 14.7165ZM683.021 32.6425C681.472 35.4709 679.693 38.1125 677.692 40.5785L682.352 44.3583C684.578 41.6144 686.56 38.6727 688.284 35.5246L683.021 32.6425ZM671.108 47.399C668.727 49.4864 666.136 51.4212 663.341 53.2103L666.576 58.2636C669.607 56.3233 672.441 54.2095 675.064 51.9108L671.108 47.399ZM654.992 57.8427C652.112 59.2264 649.071 60.4943 645.873 61.6515L647.915 67.2934C651.286 66.0734 654.515 64.7288 657.59 63.2507L654.992 57.8427ZM636.61 64.5814C633.495 65.4378 630.261 66.2086 626.915 66.8979L628.126 72.7745C631.589 72.0611 634.95 71.2604 638.2 70.3667L636.61 64.5814ZM617.245 68.6198C614 69.1134 610.667 69.5421 607.25 69.9092L607.89 75.8749C611.389 75.4991 614.81 75.0594 618.147 74.5515L617.245 68.6198ZM597.466 70.7787C594.134 71.0167 590.733 71.2038 587.266 71.343L587.506 77.3382C591.032 77.1967 594.495 77.0062 597.894 76.7634L597.466 70.7787ZM577.483 71.6082C574.174 71.657 570.812 71.6672 567.4 71.6412L567.355 77.641C570.808 77.6673 574.215 77.657 577.571 77.6075L577.483 71.6082ZM557.371 71.4662C554.096 71.3785 550.779 71.2611 547.424 71.1159L547.165 77.1103C550.551 77.2568 553.9 77.3754 557.21 77.4641L557.371 71.4662ZM537.244 70.5992C533.977 70.4099 530.676 70.1973 527.345 69.9629L526.924 75.9481C530.279 76.1841 533.604 76.3984 536.897 76.5892L537.244 70.5992ZM517.335 69.2025C513.981 68.9296 510.598 68.6372 507.189 68.3267L506.644 74.302C510.072 74.6141 513.474 74.9082 516.849 75.1827L517.335 69.2025ZM497.307 67.3851C493.99 67.0557 490.65 66.7112 487.29 66.353L486.654 72.3192C490.028 72.6788 493.382 73.0248 496.714 73.3558L497.307 67.3851ZM477.201 65.245C473.916 64.8742 470.613 64.492 467.295 64.0997L466.59 70.0582C469.919 70.4516 473.232 70.8351 476.528 71.2072L477.201 65.245ZM457.29 62.8939C453.951 62.484 450.597 62.0655 447.229 61.6395L446.476 67.5921C449.85 68.0189 453.212 68.4384 456.559 68.8492L457.29 62.8939ZM437.307 60.3689C433.988 59.9391 430.658 59.5034 427.318 59.063L426.534 65.0116C429.878 65.4525 433.213 65.8888 436.537 66.3193L437.307 60.3689ZM417.274 57.7297C413.968 57.2882 410.654 56.8433 407.333 56.3962L406.532 62.3426C409.855 62.7899 413.171 63.235 416.48 63.6769L417.274 57.7297ZM397.35 55.0496C394.017 54.5994 390.677 54.1481 387.335 53.6969L386.532 59.643C389.875 60.0941 393.213 60.5453 396.547 60.9956L397.35 55.0496ZM377.354 52.353C374.026 51.9063 370.696 51.4608 367.364 51.0178L366.574 56.9655C369.902 57.4081 373.23 57.8532 376.555 58.2996L377.354 52.353ZM357.367 49.6972C354.029 49.2595 350.691 48.8255 347.354 48.3961L346.588 54.347C349.92 54.7757 353.253 55.2092 356.587 55.6463L357.367 49.6972ZM337.343 47.1226C334.008 46.7036 330.675 46.2904 327.347 45.8843L326.62 51.8401C329.941 52.2453 333.266 52.6576 336.595 53.0758L337.343 47.1226ZM317.316 44.6813C313.961 44.2863 310.611 43.8996 307.268 43.5225L306.595 49.4847C309.928 49.8607 313.268 50.2462 316.614 50.6402L317.316 44.6813ZM297.26 42.421C293.905 42.0612 290.557 41.7124 287.22 41.3757L286.617 47.3454C289.942 47.6808 293.277 48.0283 296.62 48.3868L297.26 42.421ZM277.124 40.3926C273.769 40.0781 270.425 39.7773 267.094 39.4914L266.581 45.4694C269.896 45.7539 273.224 46.0533 276.564 46.3664L277.124 40.3926ZM257.044 38.6723C253.646 38.4106 250.262 38.166 246.895 37.9399L246.493 43.9264C249.84 44.1511 253.204 44.3943 256.583 44.6546L257.044 38.6723ZM236.845 37.3186C233.468 37.1284 230.109 36.9586 226.769 36.8107L226.504 42.8048C229.818 42.9516 233.153 43.1202 236.508 43.3091L236.845 37.3186ZM216.577 36.4267C213.202 36.3227 209.85 36.2432 206.522 36.1896L206.425 42.1889C209.722 42.2419 213.045 42.3207 216.393 42.4239L216.577 36.4267ZM196.39 36.1088C192.96 36.1102 189.558 36.1419 186.187 36.2057L186.301 42.2046C189.633 42.1416 192.998 42.1102 196.393 42.1088L196.39 36.1088ZM176.168 36.4951C172.724 36.6303 169.316 36.8021 165.945 37.0128L166.319 43.0011C169.642 42.7935 173.004 42.6239 176.403 42.4905L176.168 36.4951ZM155.805 37.7759C152.437 38.0741 149.11 38.4151 145.827 38.8012L146.528 44.7601C149.751 44.3811 153.02 44.0459 156.334 43.7525L155.805 37.7759ZM135.584 40.1769C132.22 40.6875 128.908 41.2509 125.65 41.8699L126.771 47.7644C129.951 47.16 133.19 46.609 136.484 46.109L135.584 40.1769ZM115.591 44.0024C112.231 44.7926 108.937 45.6498 105.712 46.5773L107.371 52.3435C110.496 51.4446 113.695 50.612 116.965 49.8431L115.591 44.0024ZM95.9872 49.6656C92.6925 50.817 89.4807 52.0534 86.3569 53.3788L88.7006 58.9022C91.6981 57.6303 94.7881 56.4405 97.9667 55.3297L95.9872 49.6656ZM77.1111 57.7003C73.9931 59.3028 70.9792 61.0106 68.0754 62.8289L71.2597 67.9142C74.013 66.1902 76.8791 64.5656 79.8538 63.0367L77.1111 57.7003ZM59.627 68.6767C56.8551 70.7971 54.2086 73.0413 51.6947 75.4145L55.8134 79.7775C58.1717 77.5513 60.6596 75.441 63.2725 73.4422L59.627 68.6767ZM44.5655 82.9165C42.3312 85.5431 40.237 88.3011 38.289 91.1951L43.2666 94.5454C45.0878 91.8395 47.0459 89.2608 49.1357 86.8041L44.5655 82.9165ZM32.9818 100.115C31.4108 103.121 29.9785 106.25 28.6895 109.508L34.2687 111.716C35.4817 108.65 36.827 105.711 38.2992 102.894L32.9818 100.115ZM25.3429 119.368C24.4285 122.557 23.6365 125.854 22.9699 129.26L28.8582 130.412C29.4928 127.169 30.2451 124.04 31.1105 121.021L25.3429 119.368ZM21.3578 139.739C20.9923 142.939 20.7267 146.226 20.5631 149.602L26.5561 149.892C26.7135 146.641 26.9689 143.485 27.319 140.42L21.3578 139.739ZM20.3806 160.001C20.4018 161.78 20.4491 163.582 20.5227 165.406L26.5178 165.165C26.4465 163.395 26.4007 161.65 26.3801 159.929L20.3806 160.001Z" fill="#585858"/>
</svg>
