<svg width="352" height="254" viewBox="0 0 352 254" fill="none" xmlns="http://www.w3.org/2000/svg">
<path d="M330.561 251.559C329.975 252.145 329.025 252.145 328.439 251.559L318.893 242.013C318.308 241.427 318.308 240.478 318.893 239.892C319.479 239.306 320.429 239.306 321.015 239.892L329.5 248.377L337.985 239.892C338.571 239.306 339.521 239.306 340.106 239.892C340.692 240.478 340.692 241.427 340.106 242.013L330.561 251.559ZM4.60257 5.81509C4.63306 6.64295 3.98665 7.33878 3.15878 7.36927C2.33092 7.39975 1.63509 6.75335 1.6046 5.92548L4.60257 5.81509ZM2.35172 15.8369C2.25614 15.014 2.84574 14.2695 3.66864 14.1739C4.49153 14.0783 5.2361 14.6679 5.33169 15.4908L2.35172 15.8369ZM6.9255 25.2833C7.09766 26.0936 6.5803 26.8901 5.76996 27.0622C4.95962 27.2344 4.16315 26.717 3.99099 25.9067L6.9255 25.2833ZM6.58997 35.6376C6.33354 34.8499 6.76424 34.0034 7.55198 33.747C8.33972 33.4905 9.18619 33.9212 9.44263 34.709L6.58997 35.6376ZM12.9706 43.7501C13.3167 44.5027 12.9871 45.3935 12.2345 45.7396C11.4818 46.0857 10.5911 45.7561 10.245 45.0034L12.9706 43.7501ZM15.0434 53.9377C14.6065 53.2338 14.823 52.3091 15.5269 51.8722C16.2308 51.4354 17.1555 51.6518 17.5924 52.3557L15.0434 53.9377ZM23.2522 60.3112C23.7736 60.9549 23.6745 61.8995 23.0308 62.4209C22.3871 62.9424 21.4425 62.8432 20.921 62.1995L23.2522 60.3112ZM27.7451 69.6547C27.1507 69.0777 27.1367 68.128 27.7138 67.5337C28.2908 66.9393 29.2405 66.9252 29.8349 67.5023L27.7451 69.6547ZM37.2128 73.9124C37.8662 74.4218 37.9829 75.3643 37.4735 76.0177C36.9642 76.671 36.0216 76.7877 35.3683 76.2784L37.2128 73.9124ZM43.6307 82.0967C42.932 81.6516 42.7264 80.7243 43.1716 80.0256C43.6167 79.3269 44.5439 79.1214 45.2426 79.5665L43.6307 82.0967ZM53.7544 84.5048C54.4867 84.8921 54.7663 85.7997 54.379 86.532C53.9916 87.2643 53.084 87.544 52.3517 87.1566L53.7544 84.5048ZM61.3656 91.5322C60.609 91.1949 60.2691 90.3081 60.6064 89.5514C60.9437 88.7948 61.8305 88.4549 62.5872 88.7922L61.3656 91.5322ZM71.7084 92.5476C72.4826 92.8422 72.8714 93.7088 72.5768 94.483C72.2822 95.2573 71.4156 95.6461 70.6414 95.3515L71.7084 92.5476ZM80.1202 98.7033C79.3332 98.4445 78.905 97.5968 79.1638 96.8098C79.4226 96.0229 80.2704 95.5947 81.0573 95.8535L80.1202 98.7033ZM90.5164 98.7632C91.3125 98.9924 91.7719 99.8237 91.5426 100.62C91.3134 101.416 90.4821 101.875 89.6861 101.646L90.5164 98.7632ZM99.3161 104.258C98.5135 104.053 98.0293 103.236 98.2346 102.433C98.4399 101.631 99.2569 101.146 100.06 101.352L99.3161 104.258ZM109.719 103.695C110.526 103.881 111.03 104.686 110.844 105.493C110.658 106.3 109.853 106.804 109.045 106.618L109.719 103.695ZM118.805 108.767C117.994 108.596 117.476 107.801 117.647 106.99C117.818 106.179 118.613 105.661 119.424 105.832L118.805 108.767ZM129.144 107.809C129.957 107.969 130.486 108.757 130.326 109.57C130.167 110.383 129.378 110.912 128.565 110.752L129.144 107.809ZM138.373 112.629C137.559 112.477 137.022 111.693 137.174 110.879C137.326 110.064 138.11 109.528 138.924 109.68L138.373 112.629ZM148.708 111.475C149.523 111.623 150.065 112.403 149.917 113.218C149.77 114.033 148.989 114.575 148.174 114.427L148.708 111.475ZM157.976 116.189C157.16 116.043 156.618 115.263 156.764 114.448C156.91 113.632 157.689 113.09 158.505 113.236L157.976 116.189ZM168.312 114.999C169.128 115.146 169.669 115.927 169.521 116.742C169.374 117.557 168.593 118.098 167.778 117.951L168.312 114.999ZM177.563 119.746C176.748 119.594 176.211 118.811 176.363 117.997C176.515 117.182 177.299 116.645 178.113 116.797L177.563 119.746ZM187.914 118.67C188.727 118.83 189.257 119.618 189.097 120.431C188.938 121.244 188.149 121.774 187.337 121.614L187.914 118.67ZM197.062 123.585C196.251 123.415 195.732 122.62 195.902 121.809C196.072 120.998 196.867 120.479 197.678 120.649L197.062 123.585ZM207.446 122.783C208.254 122.967 208.759 123.771 208.575 124.579C208.391 125.387 207.587 125.892 206.779 125.708L207.446 122.783ZM216.437 128.016C215.634 127.815 215.146 127 215.348 126.196C215.549 125.393 216.364 124.905 217.168 125.107L216.437 128.016ZM226.8 127.657C227.598 127.88 228.064 128.708 227.841 129.505C227.618 130.303 226.79 130.769 225.992 130.546L226.8 127.657ZM235.521 133.373C234.731 133.124 234.292 132.282 234.541 131.492C234.79 130.702 235.632 130.263 236.422 130.512L235.521 133.373ZM245.92 133.702C246.7 133.982 247.105 134.84 246.826 135.62C246.546 136.4 245.688 136.806 244.908 136.526L245.92 133.702ZM254.108 140.057C253.342 139.742 252.976 138.865 253.291 138.099C253.606 137.333 254.482 136.967 255.248 137.282L254.108 140.057ZM264.444 141.35C265.192 141.706 265.51 142.601 265.154 143.349C264.798 144.097 263.903 144.415 263.155 144.059L264.444 141.35ZM271.93 148.574C271.206 148.172 270.945 147.258 271.348 146.534C271.751 145.81 272.664 145.55 273.388 145.953L271.93 148.574ZM281.987 151.146C282.68 151.6 282.873 152.53 282.418 153.223C281.964 153.916 281.034 154.109 280.341 153.655L281.987 151.146ZM288.322 159.365C287.669 158.855 287.554 157.912 288.064 157.259C288.574 156.606 289.516 156.491 290.169 157.001L288.322 159.365ZM297.836 163.569C298.439 164.137 298.468 165.087 297.9 165.69C297.332 166.293 296.383 166.322 295.78 165.754L297.836 163.569ZM302.568 172.799C302.023 172.175 302.088 171.227 302.713 170.683C303.337 170.139 304.285 170.204 304.829 170.828L302.568 172.799ZM311.063 178.769C311.541 179.447 311.378 180.382 310.701 180.86C310.024 181.337 309.088 181.175 308.611 180.497L311.063 178.769ZM313.846 188.814C313.441 188.091 313.7 187.177 314.423 186.773C315.146 186.369 316.06 186.627 316.464 187.35L313.846 188.814ZM320.915 196.335C321.246 197.095 320.898 197.979 320.138 198.309C319.379 198.64 318.495 198.293 318.164 197.533L320.915 196.335ZM321.642 206.679C321.383 205.892 321.812 205.045 322.599 204.786C323.386 204.528 324.233 204.957 324.492 205.744L321.642 206.679ZM327.245 215.567C327.435 216.374 326.935 217.181 326.128 217.371C325.322 217.56 324.514 217.06 324.325 216.254L327.245 215.567ZM326.175 225.748C326.047 224.929 326.606 224.162 327.424 224.034C328.243 223.905 329.01 224.465 329.139 225.283L326.175 225.748ZM330.357 235.319C330.43 236.145 329.819 236.872 328.994 236.945C328.169 237.017 327.441 236.406 327.369 235.581L330.357 235.319ZM327.929 245.38C327.906 244.552 328.558 243.861 329.386 243.838C330.214 243.815 330.904 244.467 330.928 245.296L327.929 245.38ZM4.50994 0.712045C4.50994 2.44315 4.54104 4.14396 4.60257 5.81509L1.6046 5.92548C1.54168 4.2167 1.50994 2.47908 1.50994 0.712044L4.50994 0.712045ZM5.33169 15.4908C5.72631 18.8882 6.25989 22.1501 6.9255 25.2833L3.99099 25.9067C3.30513 22.6782 2.75672 19.3237 2.35172 15.8369L5.33169 15.4908ZM9.44263 34.709C10.4702 37.8657 11.6492 40.8764 12.9706 43.7501L10.245 45.0034C8.87404 42.0222 7.65294 38.9029 6.58997 35.6376L9.44263 34.709ZM17.5924 52.3557C19.3264 55.1497 21.2164 57.798 23.2522 60.3112L20.921 62.1995C18.8077 59.5907 16.8448 56.8402 15.0434 53.9377L17.5924 52.3557ZM29.8349 67.5023C32.1598 69.7595 34.6224 71.8928 37.2128 73.9124L35.3683 76.2784C32.6969 74.1957 30.152 71.9915 27.7451 69.6547L29.8349 67.5023ZM45.2426 79.5665C47.9731 81.306 50.8133 82.9491 53.7544 84.5048L52.3517 87.1566C49.3446 85.5661 46.4342 83.8827 43.6307 82.0967L45.2426 79.5665ZM62.5872 88.7922C65.5483 90.1122 68.5912 91.3614 71.7084 92.5476L70.6414 95.3515C67.4766 94.1472 64.3818 92.8768 61.3656 91.5322L62.5872 88.7922ZM81.0573 95.8535C84.1531 96.8715 87.3084 97.8391 90.5164 98.7632L89.6861 101.646C86.4456 100.713 83.2546 99.7341 80.1202 98.7033L81.0573 95.8535ZM100.06 101.352C103.239 102.165 106.461 102.944 109.719 103.695L109.045 106.618C105.767 105.863 102.521 105.078 99.3161 104.258L100.06 101.352ZM119.424 105.832C122.638 106.51 125.88 107.167 129.144 107.809L128.565 110.752C125.29 110.108 122.034 109.449 118.805 108.767L119.424 105.832ZM138.924 109.68C142.171 110.286 145.434 110.883 148.708 111.475L148.174 114.427C144.897 113.834 141.628 113.236 138.373 112.629L138.924 109.68ZM158.505 113.236C161.77 113.821 165.042 114.407 168.312 114.999L167.778 117.951C164.511 117.359 161.242 116.774 157.976 116.189L158.505 113.236ZM178.113 116.797C181.387 117.408 184.656 118.031 187.914 118.67L187.337 121.614C184.089 120.977 180.83 120.356 177.563 119.746L178.113 116.797ZM197.678 120.649C200.952 121.336 204.21 122.046 207.446 122.783L206.779 125.708C203.562 124.975 200.321 124.269 197.062 123.585L197.678 120.649ZM217.168 125.107C220.408 125.92 223.621 126.768 226.8 127.657L225.992 130.546C222.841 129.665 219.655 128.824 216.437 128.016L217.168 125.107ZM236.422 130.512C239.633 131.523 242.801 132.585 245.92 133.702L244.908 136.526C241.828 135.423 238.697 134.374 235.521 133.373L236.422 130.512ZM255.248 137.282C258.376 138.568 261.443 139.921 264.444 141.35L263.155 144.059C260.206 142.655 257.188 141.323 254.108 140.057L255.248 137.282ZM273.388 145.953C276.336 147.593 279.205 149.321 281.987 151.146L280.341 153.655C277.624 151.872 274.818 150.181 271.93 148.574L273.388 145.953ZM290.169 157.001C292.828 159.078 295.387 161.265 297.836 163.569L295.78 165.754C293.401 163.515 290.912 161.388 288.322 159.365L290.169 157.001ZM304.829 170.828C307.027 173.349 309.108 175.994 311.063 178.769L308.611 180.497C306.716 177.808 304.699 175.244 302.568 172.799L304.829 170.828ZM316.464 187.35C318.07 190.22 319.555 193.213 320.915 196.335L318.164 197.533C316.844 194.501 315.402 191.597 313.846 188.814L316.464 187.35ZM324.492 205.744C325.528 208.899 326.447 212.172 327.245 215.567L324.325 216.254C323.546 212.94 322.65 209.75 321.642 206.679L324.492 205.744ZM329.139 225.283C329.647 228.525 330.055 231.869 330.357 235.319L327.369 235.581C327.072 232.197 326.673 228.92 326.175 225.748L329.139 225.283ZM330.928 245.296C330.976 247.006 331 248.74 331 250.498L328 250.498C328 248.767 327.976 247.061 327.929 245.38L330.928 245.296ZM331.621 252.62C330.45 253.791 328.55 253.791 327.379 252.62L308.287 233.528C307.115 232.356 307.115 230.457 308.287 229.285C309.458 228.114 311.358 228.114 312.529 229.285L329.5 246.256L346.47 229.285C347.642 228.114 349.542 228.114 350.713 229.285C351.885 230.457 351.885 232.356 350.713 233.528L331.621 252.62ZM6.10156 5.75989C6.16252 7.41562 4.86971 8.80728 3.21398 8.86825C1.55825 8.92922 0.166589 7.63641 0.10562 5.98068L6.10156 5.75989ZM0.861739 16.01C0.670573 14.3642 1.84978 12.8751 3.49557 12.6839C5.14136 12.4927 6.6305 13.6719 6.82167 15.3177L0.861739 16.01ZM8.39276 24.9716C8.73706 26.5922 7.70235 28.1852 6.08167 28.5295C4.46098 28.8738 2.86804 27.8391 2.52374 26.2184L8.39276 24.9716ZM5.16365 36.1019C4.65077 34.5265 5.51219 32.8335 7.08767 32.3206C8.66314 31.8078 10.3561 32.6692 10.869 34.2447L5.16365 36.1019ZM14.3334 43.1234C15.0256 44.6287 14.3665 46.4102 12.8611 47.1024C11.3558 47.7946 9.57436 47.1355 8.88214 45.6301L14.3334 43.1234ZM13.7689 54.7287C12.8952 53.3209 13.3281 51.4714 14.7359 50.5977C16.1437 49.724 17.9931 50.157 18.8669 51.5647L13.7689 54.7287ZM24.4177 59.367C25.4606 60.6545 25.2624 62.5436 23.9749 63.5865C22.6875 64.6294 20.7984 64.4311 19.7555 63.1437L24.4177 59.367ZM26.7002 70.731C25.5115 69.5768 25.4834 67.6775 26.6376 66.4888C27.7917 65.3 29.691 65.272 30.8797 66.4261L26.7002 70.731ZM38.1351 72.7295C39.4418 73.7482 39.6752 75.6333 38.6565 76.9399C37.6378 78.2466 35.7527 78.4801 34.446 77.4613L38.1351 72.7295ZM42.8247 83.3618C41.4274 82.4715 41.0163 80.617 41.9065 79.2197C42.7967 77.8223 44.6512 77.4112 46.0486 78.3014L42.8247 83.3618ZM54.4557 83.1788C55.9203 83.9535 56.4796 85.7688 55.7049 87.2334C54.9302 88.698 53.1149 89.2573 51.6503 88.4826L54.4557 83.1788ZM60.7549 92.9022C59.2416 92.2276 58.5617 90.454 59.2363 88.9407C59.911 87.4274 61.6846 86.7475 63.1979 87.4221L60.7549 92.9022ZM72.2418 91.1457C73.7904 91.735 74.568 93.468 73.9787 95.0165C73.3895 96.565 71.6564 97.3427 70.1079 96.7534L72.2418 91.1457ZM79.6516 100.128C78.0776 99.6107 77.2213 97.9152 77.7389 96.3412C78.2565 94.7673 79.952 93.911 81.5259 94.4285L79.6516 100.128ZM90.9316 97.3218C92.5237 97.7803 93.4426 99.4428 92.984 101.035C92.5255 102.627 90.863 103.546 89.2709 103.087L90.9316 97.3218ZM98.9443 105.711C97.3392 105.301 96.3708 103.667 96.7814 102.062C97.192 100.456 98.8261 99.4879 100.431 99.8985L98.9443 105.711ZM110.056 102.233C111.67 102.605 112.678 104.215 112.306 105.83C111.934 107.445 110.323 108.452 108.709 108.08L110.056 102.233ZM118.495 110.235C116.874 109.893 115.837 108.302 116.179 106.68C116.521 105.059 118.112 104.022 119.733 104.364L118.495 110.235ZM129.433 106.337C131.059 106.657 132.118 108.234 131.798 109.859C131.479 111.485 129.902 112.544 128.276 112.224L129.433 106.337ZM138.098 114.103C136.469 113.799 135.395 112.232 135.7 110.603C136.004 108.975 137.571 107.901 139.199 108.205L138.098 114.103ZM148.975 109.999C150.606 110.294 151.688 111.855 151.393 113.485C151.098 115.116 149.537 116.198 147.907 115.903L148.975 109.999ZM157.711 117.665C156.08 117.373 154.995 115.814 155.287 114.183C155.579 112.552 157.138 111.467 158.769 111.759L157.711 117.665ZM168.58 113.523C170.21 113.818 171.292 115.379 170.997 117.009C170.702 118.639 169.141 119.722 167.511 119.427L168.58 113.523ZM177.287 121.221C175.659 120.917 174.585 119.35 174.889 117.721C175.193 116.093 176.76 115.019 178.389 115.323L177.287 121.221ZM188.203 117.198C189.829 117.517 190.888 119.094 190.569 120.72C190.25 122.346 188.674 123.405 187.048 123.086L188.203 117.198ZM196.754 125.053C195.133 124.713 194.094 123.123 194.434 121.501C194.774 119.88 196.365 118.841 197.986 119.181L196.754 125.053ZM207.779 121.321C209.395 121.689 210.406 123.297 210.038 124.912C209.669 126.528 208.061 127.539 206.446 127.171L207.779 121.321ZM216.072 129.471C214.465 129.068 213.489 127.438 213.893 125.831C214.296 124.224 215.926 123.248 217.533 123.652L216.072 129.471ZM227.204 126.212C228.799 126.658 229.731 128.314 229.285 129.909C228.839 131.505 227.184 132.437 225.588 131.991L227.204 126.212ZM235.07 134.804C233.49 134.306 232.612 132.621 233.11 131.041C233.608 129.461 235.293 128.583 236.873 129.081L235.07 134.804ZM246.426 132.29C247.986 132.849 248.797 134.567 248.238 136.126C247.679 137.686 245.961 138.497 244.402 137.939L246.426 132.29ZM253.537 141.444C252.005 140.814 251.273 139.061 251.903 137.529C252.533 135.997 254.286 135.265 255.819 135.895L253.537 141.444ZM265.089 139.996C266.585 140.708 267.22 142.498 266.508 143.994C265.796 145.49 264.006 146.125 262.51 145.413L265.089 139.996ZM271.2 149.885C269.752 149.08 269.232 147.253 270.037 145.805C270.843 144.357 272.67 143.836 274.117 144.642L271.2 149.885ZM282.81 149.892C284.195 150.801 284.581 152.66 283.673 154.046C282.764 155.431 280.904 155.818 279.519 154.909L282.81 149.892ZM287.399 160.547C286.093 159.527 285.862 157.642 286.882 156.336C287.902 155.03 289.787 154.799 291.093 155.819L287.399 160.547ZM298.864 162.477C300.07 163.613 300.128 165.511 298.992 166.718C297.857 167.924 295.958 167.982 294.752 166.846L298.864 162.477ZM301.437 173.785C300.348 172.536 300.478 170.641 301.727 169.552C302.976 168.464 304.871 168.594 305.96 169.843L301.437 173.785ZM312.29 177.905C313.244 179.26 312.92 181.131 311.565 182.086C310.211 183.04 308.339 182.716 307.385 181.361L312.29 177.905ZM312.537 189.547C311.728 188.101 312.244 186.273 313.69 185.464C315.137 184.655 316.964 185.172 317.773 186.618L312.537 189.547ZM322.29 195.737C322.952 197.256 322.256 199.023 320.737 199.685C319.218 200.346 317.45 199.651 316.789 198.132L322.29 195.737ZM320.216 207.147C319.7 205.573 320.557 203.878 322.131 203.361C323.705 202.844 325.4 203.702 325.917 205.276L320.216 207.147ZM328.706 215.224C329.085 216.837 328.084 218.452 326.471 218.831C324.858 219.21 323.244 218.21 322.865 216.597L328.706 215.224ZM324.693 225.98C324.436 224.344 325.555 222.808 327.192 222.552C328.829 222.295 330.364 223.414 330.621 225.051L324.693 225.98ZM331.852 235.188C331.996 236.839 330.775 238.294 329.125 238.439C327.474 238.583 326.019 237.363 325.874 235.712L331.852 235.188ZM326.429 245.422C326.383 243.766 327.688 242.385 329.344 242.339C331 242.292 332.381 243.597 332.427 245.253L326.429 245.422ZM6.00994 0.712044C6.00994 2.42519 6.04071 4.10759 6.10156 5.75989L0.10562 5.98068C0.0420051 4.25307 0.00993683 2.49704 0.00993592 0.712045L6.00994 0.712044ZM6.82167 15.3177C7.21111 18.6705 7.73727 21.8861 8.39276 24.9716L2.52374 26.2184C1.82775 22.9423 1.27193 19.5414 0.861739 16.01L6.82167 15.3177ZM10.869 34.2447C11.8789 37.3471 13.0367 40.3035 14.3334 43.1234L8.88214 45.6301C7.48648 42.5951 6.24429 39.4215 5.16365 36.1019L10.869 34.2447ZM18.8669 51.5647C20.5672 54.3044 22.4207 56.9017 24.4177 59.367L19.7555 63.1437C17.6034 60.487 15.604 57.6855 13.7689 54.7287L18.8669 51.5647ZM30.8797 66.4261C33.1637 68.6435 35.5851 70.7414 38.1351 72.7295L34.446 77.4613C31.7342 75.3472 29.1481 73.1075 26.7002 70.731L30.8797 66.4261ZM46.0486 78.3014C48.7426 80.0177 51.5477 81.6406 54.4557 83.1788L51.6503 88.4826C48.6103 86.8746 45.6647 85.171 42.8247 83.3618L46.0486 78.3014ZM63.1979 87.4221C66.1315 88.7299 69.1485 89.9686 72.2418 91.1457L70.1079 96.7534C66.9193 95.54 63.7986 94.2591 60.7549 92.9022L63.1979 87.4221ZM81.5259 94.4285C84.6024 95.4402 87.7397 96.4024 90.9316 97.3218L89.2709 103.087C86.0143 102.149 82.8053 101.165 79.6516 100.128L81.5259 94.4285ZM100.431 99.8985C103.598 100.709 106.808 101.485 110.056 102.233L108.709 108.08C105.42 107.322 102.163 106.535 98.9443 105.711L100.431 99.8985ZM119.733 104.364C122.94 105.041 126.175 105.696 129.433 106.337L128.276 112.224C124.995 111.579 121.732 110.918 118.495 110.235L119.733 104.364ZM139.199 108.205C142.443 108.811 145.703 109.407 148.975 109.999L147.907 115.903C144.628 115.31 141.356 114.711 138.098 114.103L139.199 108.205ZM158.769 111.759C162.034 112.344 165.307 112.93 168.58 113.523L167.511 119.427C164.245 118.835 160.977 118.25 157.711 117.665L158.769 111.759ZM178.389 115.323C181.666 115.935 184.939 116.558 188.203 117.198L187.048 123.086C183.806 122.45 180.551 121.83 177.287 121.221L178.389 115.323ZM197.986 119.181C201.268 119.87 204.534 120.581 207.779 121.321L206.446 127.171C203.238 126.44 200.006 125.736 196.754 125.053L197.986 119.181ZM217.533 123.652C220.785 124.468 224.011 125.32 227.204 126.212L225.588 131.991C222.452 131.114 219.278 130.276 216.072 129.471L217.533 123.652ZM236.873 129.081C240.101 130.098 243.287 131.165 246.426 132.29L244.402 137.939C241.342 136.842 238.229 135.799 235.07 134.804L236.873 129.081ZM255.819 135.895C258.969 137.19 262.062 138.555 265.089 139.996L262.51 145.413C259.588 144.022 256.595 142.701 253.537 141.444L255.819 135.895ZM274.117 144.642C277.095 146.299 279.996 148.046 282.81 149.892L279.519 154.909C276.834 153.148 274.059 151.475 271.2 149.885L274.117 144.642ZM291.093 155.819C293.786 157.923 296.38 160.139 298.864 162.477L294.752 166.846C292.407 164.64 289.954 162.543 287.399 160.547L291.093 155.819ZM305.96 169.843C308.191 172.402 310.304 175.087 312.29 177.905L307.385 181.361C305.52 178.715 303.535 176.192 301.437 173.785L305.96 169.843ZM317.773 186.618C319.403 189.532 320.911 192.569 322.29 195.737L316.789 198.132C315.489 195.145 314.069 192.286 312.537 189.547L317.773 186.618ZM325.917 205.276C326.967 208.473 327.898 211.788 328.706 215.224L322.865 216.597C322.096 213.324 321.211 210.176 320.216 207.147L325.917 205.276ZM330.621 225.051C331.135 228.328 331.546 231.706 331.852 235.188L325.874 235.712C325.581 232.361 325.185 229.118 324.693 225.98L330.621 225.051ZM332.427 245.253C332.476 246.978 332.5 248.726 332.5 250.498L326.5 250.498C326.5 248.781 326.476 247.089 326.429 245.422L332.427 245.253Z" fill="#585858"/>
</svg>
