<svg width="157" height="158" viewBox="0 0 157 158" fill="none" xmlns="http://www.w3.org/2000/svg">
<path d="M21.4394 156.061C22.0252 156.647 22.975 156.647 23.5607 156.061L33.1067 146.515C33.6925 145.929 33.6925 144.979 33.1067 144.394C32.5209 143.808 31.5712 143.808 30.9854 144.394L22.5001 152.879L14.0148 144.394C13.429 143.808 12.4793 143.808 11.8935 144.394C11.3077 144.979 11.3077 145.929 11.8935 146.515L21.4394 156.061ZM151.882 5.62396C151.842 6.45146 152.481 7.15405 153.309 7.19325C154.136 7.23245 154.839 6.59341 154.878 5.76591L151.882 5.62396ZM153.833 15.9963C153.966 15.1787 153.411 14.4078 152.594 14.2744C151.776 14.141 151.005 14.6957 150.872 15.5133L153.833 15.9963ZM148.582 25.1274C148.327 25.9156 148.76 26.7612 149.548 27.0161C150.336 27.2709 151.182 26.8385 151.437 26.0503L148.582 25.1274ZM147.315 35.6519C147.715 34.9265 147.452 34.0141 146.726 33.6139C146.001 33.2138 145.088 33.4775 144.688 34.2029L147.315 35.6519ZM139.074 42.2333C138.529 42.8576 138.594 43.8051 139.218 44.3497C139.843 44.8942 140.79 44.8296 141.335 44.2053L139.074 42.2333ZM133.71 51.3237C134.367 50.8198 134.492 49.8782 133.988 49.2207C133.484 48.5632 132.543 48.4387 131.885 48.9426L133.71 51.3237ZM123.55 54.3032C122.822 54.6988 122.552 55.6095 122.948 56.3374C123.343 57.0653 124.254 57.3347 124.982 56.9391L123.55 54.3032ZM115.66 61.3379C116.426 61.0215 116.79 60.1443 116.474 59.3787C116.157 58.6131 115.28 58.2489 114.514 58.5653L115.66 61.3379ZM105.078 62.0898C104.294 62.3581 103.876 63.2109 104.144 63.9947C104.413 64.7785 105.266 65.1965 106.049 64.9282L105.078 62.0898ZM96.3538 68.0784C97.1442 67.8303 97.5839 66.9885 97.3358 66.1981C97.0878 65.4077 96.2459 64.968 95.4555 65.2161L96.3538 68.0784ZM85.7519 68.2669C84.963 68.5198 84.5285 69.3643 84.7814 70.1532C85.0343 70.9421 85.8788 71.3766 86.6677 71.1237L85.7519 68.2669ZM77.0951 74.3591C77.8742 74.0775 78.2776 73.2177 77.996 72.4386C77.7144 71.6595 76.8546 71.2561 76.0755 71.5377L77.0951 74.3591ZM66.5387 75.327C65.7806 75.661 65.4369 76.5463 65.7709 77.3044C66.1049 78.0625 66.9903 78.4063 67.7484 78.0723L66.5387 75.327ZM58.8027 82.5386C59.5229 82.1292 59.7748 81.2135 59.3654 80.4933C58.956 79.7731 58.0403 79.5212 57.3201 79.9306L58.8027 82.5386ZM48.6741 85.6187C48.0155 86.1213 47.8892 87.0626 48.3918 87.7211C48.8944 88.3797 49.8357 88.5061 50.4942 88.0034L48.6741 85.6187ZM43.1187 94.6097C43.6887 94.0086 43.6634 93.0592 43.0623 92.4892C42.4611 91.9192 41.5117 91.9444 40.9417 92.5456L43.1187 94.6097ZM34.4546 100.656C33.9931 101.344 34.1767 102.276 34.8647 102.737C35.5527 103.199 36.4845 103.015 36.946 102.327L34.4546 100.656ZM32.0964 110.984C32.4444 110.233 32.1172 109.341 31.3654 108.993C30.6136 108.645 29.7221 108.972 29.374 109.724L32.0964 110.984ZM25.701 119.347C25.4565 120.139 25.8999 120.979 26.6914 121.223C27.4829 121.468 28.3228 121.024 28.5673 120.233L25.701 119.347ZM26.1702 129.911C26.3266 129.098 25.7939 128.312 24.9803 128.155C24.1668 127.999 23.3805 128.531 23.2241 129.345L26.1702 129.911ZM21.747 139.515C21.6628 140.339 22.2627 141.075 23.0868 141.16C23.911 141.244 24.6473 140.644 24.7314 139.82L21.747 139.515ZM24.0787 149.832C24.1044 149.004 23.454 148.312 22.6259 148.287C21.7979 148.261 21.1058 148.911 21.0802 149.739L24.0787 149.832ZM152 0.499994C152 2.26177 151.96 3.96906 151.882 5.62396L154.878 5.76591C154.959 4.06178 155 2.30712 155 0.499998L152 0.499994ZM150.872 15.5133C150.305 18.9873 149.534 22.182 148.582 25.1274L151.437 26.0503C152.439 22.9511 153.243 19.6085 153.833 15.9963L150.872 15.5133ZM144.688 34.2029C143.048 37.1775 141.165 39.8367 139.074 42.2333L141.335 44.2053C143.563 41.6508 145.569 38.8167 147.315 35.6519L144.688 34.2029ZM131.885 48.9426C129.289 50.9323 126.499 52.7007 123.55 54.3032L124.982 56.9391C128.046 55.2739 130.971 53.4225 133.71 51.3237L131.885 48.9426ZM114.514 58.5653C111.463 59.8264 108.307 60.9848 105.078 62.0898L106.049 64.9282C109.318 63.8097 112.535 62.6295 115.66 61.3379L114.514 58.5653ZM95.4555 65.2161C92.2481 66.2227 88.9939 67.2276 85.7519 68.2669L86.6677 71.1237C89.8984 70.088 93.1285 69.0906 96.3538 68.0784L95.4555 65.2161ZM76.0755 71.5377C72.8562 72.7011 69.6657 73.9492 66.5387 75.327L67.7484 78.0723C70.7989 76.7281 73.924 75.5051 77.0951 74.3591L76.0755 71.5377ZM57.3201 79.9306C54.3294 81.6307 51.4355 83.511 48.6741 85.6187L50.4942 88.0034C53.1361 85.987 55.9153 84.1801 58.8027 82.5386L57.3201 79.9306ZM40.9417 92.5456C38.618 94.9963 36.4461 97.6871 34.4546 100.656L36.946 102.327C38.8418 99.5009 40.908 96.9413 43.1187 94.6097L40.9417 92.5456ZM29.374 109.724C27.9945 112.704 26.765 115.904 25.701 119.347L28.5673 120.233C29.5935 116.912 30.7756 113.837 32.0964 110.984L29.374 109.724ZM23.2241 129.345C22.6074 132.553 22.1121 135.939 21.747 139.515L24.7314 139.82C25.0882 136.326 25.5711 133.028 26.1702 129.911L23.2241 129.345ZM21.0802 149.739C21.027 151.454 21.0001 153.207 21.0001 155L24.0001 155C24.0001 153.238 24.0266 151.515 24.0787 149.832L21.0802 149.739ZM20.3788 157.122C21.5503 158.293 23.4498 158.293 24.6214 157.122L43.7133 138.03C44.8849 136.858 44.8849 134.959 43.7133 133.787C42.5417 132.615 40.6422 132.615 39.4707 133.787L22.5001 150.758L5.52953 133.787C4.35796 132.615 2.45846 132.615 1.28689 133.787C0.115314 134.959 0.115309 136.858 1.28688 138.03L20.3788 157.122ZM150.383 5.55298C150.305 7.20798 151.583 8.61318 153.238 8.69157C154.893 8.76997 156.298 7.49188 156.377 5.83688L150.383 5.55298ZM155.313 16.2378C155.58 14.6026 154.47 13.0607 152.835 12.794C151.2 12.5272 149.658 13.6366 149.391 15.2718L155.313 16.2378ZM147.155 24.6659C146.645 26.2425 147.51 27.9337 149.087 28.4434C150.663 28.9531 152.354 28.0882 152.864 26.5117L147.155 24.6659ZM148.629 36.3763C149.429 34.9256 148.901 33.1007 147.451 32.3005C146 31.5002 144.175 32.0276 143.375 33.4784L148.629 36.3763ZM137.944 41.2472C136.855 42.4958 136.984 44.3909 138.232 45.48C139.481 46.5692 141.376 46.4399 142.465 45.1913L137.944 41.2472ZM134.622 52.5143C135.937 51.5064 136.186 49.6233 135.179 48.3083C134.171 46.9932 132.288 46.7442 130.973 47.752L134.622 52.5143ZM122.833 52.9853C121.378 53.7764 120.839 55.5979 121.63 57.0537C122.421 58.5094 124.243 59.0482 125.698 58.2571L122.833 52.9853ZM116.233 62.7242C117.764 62.0914 118.493 60.3371 117.86 58.8058C117.227 57.2746 115.473 56.5462 113.942 57.179L116.233 62.7242ZM104.592 60.6707C103.025 61.2072 102.189 62.9129 102.725 64.4805C103.262 66.048 104.967 66.8839 106.535 66.3474L104.592 60.6707ZM96.803 69.5096C98.3838 69.0135 99.2631 67.3298 98.767 65.7489C98.2709 64.1681 96.5872 63.2888 95.0063 63.7849L96.803 69.5096ZM85.294 66.8385C83.7162 67.3443 82.8472 69.0333 83.353 70.6111C83.8588 72.1889 85.5479 73.0579 87.1256 72.5521L85.294 66.8385ZM77.605 75.7698C79.1632 75.2067 79.9698 73.487 79.4067 71.9288C78.8436 70.3705 77.1239 69.5639 75.5657 70.127L77.605 75.7698ZM65.9339 73.9543C64.4177 74.6224 63.7302 76.3931 64.3982 77.9093C65.0663 79.4255 66.837 80.113 68.3532 79.4449L65.9339 73.9543ZM59.544 83.8427C60.9844 83.0238 61.4882 81.1924 60.6694 79.752C59.8506 78.3116 58.0191 77.8078 56.5788 78.6266L59.544 83.8427ZM47.764 84.4263C46.4469 85.4316 46.1942 87.3142 47.1994 88.6312C48.2047 89.9483 50.0873 90.2011 51.4043 89.1958L47.764 84.4263ZM44.2072 95.6418C45.3472 94.4395 45.2967 92.5407 44.0943 91.4007C42.892 90.2607 40.9932 90.3112 39.8532 91.5135L44.2072 95.6418ZM33.2089 99.8203C32.286 101.196 32.6532 103.06 34.0291 103.983C35.4051 104.906 37.2687 104.539 38.1917 103.163L33.2089 99.8203ZM33.4576 111.615C34.1537 110.111 33.4991 108.328 31.9956 107.632C30.4921 106.936 28.7089 107.59 28.0128 109.094L33.4576 111.615ZM24.2679 118.904C23.7788 120.487 24.6655 122.167 26.2485 122.656C27.8316 123.146 29.5114 122.259 30.0005 120.676L24.2679 118.904ZM27.6432 130.195C27.956 128.567 26.8906 126.995 25.2635 126.682C23.6364 126.369 22.0639 127.435 21.7511 129.062L27.6432 130.195ZM20.2547 139.363C20.0864 141.011 21.2861 142.484 22.9344 142.652C24.5827 142.82 26.0554 141.62 26.2237 139.972L20.2547 139.363ZM25.578 149.879C25.6293 148.223 24.3284 146.839 22.6724 146.787C21.0163 146.736 19.6322 148.037 19.5809 149.693L25.578 149.879ZM150.5 0.499993C150.5 2.23909 150.461 3.9227 150.383 5.55298L156.377 5.83688C156.458 4.10815 156.5 2.3298 156.5 0.499999L150.5 0.499993ZM149.391 15.2718C148.836 18.6767 148.082 21.7975 147.155 24.6659L152.864 26.5117C153.891 23.3356 154.712 19.9191 155.313 16.2378L149.391 15.2718ZM143.375 33.4784C141.787 36.3579 139.965 38.9296 137.944 41.2472L142.465 45.1913C144.762 42.5579 146.83 39.6363 148.629 36.3763L143.375 33.4784ZM130.973 47.752C128.447 49.6872 125.725 51.4141 122.833 52.9853L125.698 58.2571C128.82 56.5606 131.813 54.6676 134.622 52.5143L130.973 47.752ZM113.942 57.179C110.926 58.4249 107.801 59.5723 104.592 60.6707L106.535 66.3474C109.823 65.2221 113.071 64.031 116.233 62.7242L113.942 57.179ZM95.0063 63.7849C91.8079 64.7887 88.5416 65.7974 85.294 66.8385L87.1256 72.5521C90.3507 71.5182 93.5687 70.5246 96.803 69.5096L95.0063 63.7849ZM75.5657 70.127C72.3224 71.2991 69.099 72.5597 65.9339 73.9543L68.3532 79.4449C71.3656 78.1176 74.4578 76.9072 77.605 75.7698L75.5657 70.127ZM56.5788 78.6266C53.5365 80.356 50.5853 82.273 47.764 84.4263L51.4043 89.1958C53.9864 87.225 56.7082 85.4547 59.544 83.8427L56.5788 78.6266ZM39.8532 91.5135C37.473 94.0238 35.2483 96.7801 33.2089 99.8203L38.1917 103.163C40.0397 100.408 42.053 97.9137 44.2072 95.6418L39.8532 91.5135ZM28.0128 109.094C26.604 112.137 25.3507 115.4 24.2679 118.904L30.0005 120.676C31.0078 117.416 32.1662 114.404 33.4576 111.615L28.0128 109.094ZM21.7511 129.062C21.1255 132.316 20.6241 135.746 20.2547 139.363L26.2237 139.972C26.5763 136.52 27.0529 133.265 27.6432 130.195L21.7511 129.062ZM19.5809 149.693C19.5273 151.424 19.5001 153.192 19.5001 155L25.5001 155C25.5001 153.253 25.5263 151.546 25.578 149.879L19.5809 149.693Z" fill="#585858"/>
</svg>
